# Blender v2.76 (sub 0) OBJ File: '3DAnimation.blend'
# www.blender.org
mtllib Animation_000021.mtl
o Cube
v 0.666370 0.295350 -0.665708
v 0.666370 0.295350 0.665708
v -0.665000 0.284361 0.665708
v -0.665000 0.284361 -0.665708
v 0.626137 1.576994 -0.665707
v 0.626164 1.577042 0.665708
v -0.653421 1.668820 0.665708
v -0.653442 1.668769 -0.665708
v 1.206119 1.936718 -0.665707
v 1.206166 1.936733 0.665708
v 0.504548 2.903681 -0.665708
v 0.504628 2.903686 0.665707
v 1.664027 1.293749 -0.665708
v 1.663666 1.294124 0.665708
v 2.347820 2.299024 -0.665709
v 2.347346 2.299675 0.665707
v 1.780653 0.365594 -0.665708
v 1.766675 0.364923 0.665708
v 2.995344 0.731121 -0.665709
v 3.001869 0.743503 0.665707
vn 0.008300 -1.000000 0.000000
vn 0.999500 0.031400 -0.000000
vn -0.000000 0.000000 1.000000
vn -1.000000 0.008400 0.000000
vn 0.000000 0.000000 -1.000000
vn 0.288100 -0.957600 0.007500
vn -1.000000 0.008300 -0.000000
vn 0.293000 -0.956100 0.002600
vn -0.992100 -0.124700 -0.010500
vn 0.921800 0.387700 0.000100
vn -0.993900 -0.110200 -0.000200
vn 0.924200 0.381700 -0.008100
vn 0.311500 0.950300 -0.000000
vn -0.814500 -0.580100 -0.000100
vn 0.311700 0.950200 -0.000400
vn -0.814600 -0.580000 0.000000
vn -0.729400 0.684100 0.000000
vn 0.527100 -0.849800 0.000000
vn -0.729500 0.684000 -0.000000
vn 0.527000 -0.849800 -0.000000
usemtl Material
s off
f 2//1 3//1 4//1
f 5//2 6//2 2//2
f 6//3 7//3 3//3
f 3//4 7//4 8//4
f 5//5 1//5 4//5
f 17//6 19//6 20//6
f 1//1 2//1 4//1
f 1//2 5//2 2//2
f 2//3 6//3 3//3
f 4//7 3//7 8//7
f 8//5 5//5 4//5
f 18//8 17//8 20//8
usemtl Material.001
f 14//3 18//3 20//3
f 13//9 17//9 18//9
f 15//10 16//10 20//10
f 13//5 15//5 19//5
f 16//3 14//3 20//3
f 14//11 13//11 18//11
f 19//12 15//12 20//12
f 17//5 13//5 19//5
usemtl Material.002
f 11//13 12//13 16//13
f 9//5 11//5 15//5
f 10//3 14//3 16//3
f 9//14 13//14 14//14
f 15//15 11//15 16//15
f 13//5 9//5 15//5
f 12//3 10//3 16//3
f 10//16 9//16 14//16
usemtl Material.003
f 7//17 12//17 11//17
f 5//5 8//5 11//5
f 6//3 10//3 12//3
f 6//18 5//18 9//18
f 8//19 7//19 11//19
f 9//5 5//5 11//5
f 7//3 6//3 12//3
f 10//20 6//20 9//20
