# Blender v2.76 (sub 0) OBJ File: '3DAnimation.blend'
# www.blender.org
mtllib Animation_000032.mtl
o Cube
v 0.666061 0.292739 -0.665708
v 0.666061 0.292739 0.665708
v -0.665342 0.286967 0.665708
v -0.665341 0.286967 -0.665708
v 0.651296 1.595307 -0.665707
v 0.651304 1.595335 0.665708
v -0.665925 1.648126 0.665708
v -0.665930 1.648097 -0.665708
v 1.060170 2.437815 -0.665707
v 1.060184 2.437843 0.665708
v -0.086179 3.039103 -0.665708
v -0.086149 3.039129 0.665707
v 1.931049 2.807581 -0.665708
v 1.930771 2.807430 0.665708
v 1.314169 3.952794 -0.665708
v 1.313783 3.952705 0.665707
v 2.974459 2.888524 -0.665708
v 2.972798 2.881571 0.665708
v 2.778162 4.185848 -0.665709
v 2.773016 4.190812 0.665707
vn 0.004300 -1.000000 0.000000
vn 0.999900 0.011300 -0.000000
vn -0.000000 0.000000 1.000000
vn -1.000000 -0.000400 0.000000
vn 0.000000 0.000000 -1.000000
vn 0.988700 0.149600 0.003300
vn 0.988600 0.150800 0.002000
vn 0.077300 -0.997000 -0.005100
vn -0.161000 0.986900 0.000000
vn 0.071000 -0.997500 -0.000100
vn -0.157200 0.987600 -0.004300
vn -0.546500 0.837500 -0.000000
vn 0.390800 -0.920500 -0.000000
vn -0.546400 0.837500 -0.000100
vn -0.923000 0.384700 0.000000
vn 0.899700 -0.436600 0.000000
vn 0.899600 -0.436600 -0.000000
usemtl Material
s off
f 1//1 2//1 3//1
f 5//2 6//2 2//2
f 6//3 7//3 3//3
f 3//4 7//4 8//4
f 5//5 1//5 4//5
f 17//6 19//6 20//6
f 4//1 1//1 3//1
f 1//2 5//2 2//2
f 2//3 6//3 3//3
f 4//4 3//4 8//4
f 8//5 5//5 4//5
f 18//7 17//7 20//7
usemtl Material.001
f 14//3 18//3 20//3
f 13//8 17//8 18//8
f 15//9 16//9 20//9
f 13//5 15//5 19//5
f 16//3 14//3 20//3
f 14//10 13//10 18//10
f 19//11 15//11 20//11
f 17//5 13//5 19//5
usemtl Material.002
f 11//12 12//12 16//12
f 9//5 11//5 15//5
f 10//3 14//3 16//3
f 9//13 13//13 14//13
f 15//14 11//14 16//14
f 13//5 9//5 15//5
f 12//3 10//3 16//3
f 10//13 9//13 14//13
usemtl Material.003
f 7//15 12//15 11//15
f 5//5 8//5 11//5
f 6//3 10//3 12//3
f 6//16 5//16 9//16
f 8//15 7//15 11//15
f 9//5 5//5 11//5
f 7//3 6//3 12//3
f 10//17 6//17 9//17
