# Blender v2.76 (sub 0) OBJ File: '3DAnimation.blend'
# www.blender.org
mtllib Animation_000050.mtl
o Cube
v 0.668487 0.316449 -0.665708
v 0.668487 0.316449 0.665708
v -0.661871 0.263388 0.665708
v -0.661871 0.263388 -0.665708
v 0.605484 1.682400 -0.665707
v 0.605493 1.682365 0.665708
v -0.700471 1.559737 0.665708
v -0.700484 1.559770 -0.665708
v -0.179668 3.030669 -0.665707
v -0.179624 3.030644 0.665708
v -1.201806 2.269665 -0.665708
v -1.201781 2.269637 0.665708
v -1.857219 3.556756 -0.665707
v -1.857718 3.556699 0.665708
v -2.083463 2.293391 -0.665708
v -2.083837 2.293444 0.665708
v -3.357169 3.214991 -0.665707
v -3.360916 3.206927 0.665708
v -3.030463 1.937505 -0.665708
v -3.035504 1.944829 0.665707
vn 0.039900 -0.999200 -0.000000
vn 0.998900 0.046100 -0.000000
vn -0.000000 -0.000000 1.000000
vn -0.999600 -0.029800 0.000000
vn 0.000000 0.000000 -1.000000
vn -0.968800 -0.247800 -0.002300
vn -0.968300 -0.249700 -0.004200
vn -0.222200 0.975000 -0.000000
vn 0.344000 -0.939000 0.006500
vn -0.226600 0.974000 0.005300
vn 0.351800 -0.936100 0.000100
vn -0.027000 -0.999600 0.000000
vn 0.299200 0.954200 0.000000
vn -0.026900 -0.999600 -0.000000
vn 0.299100 0.954200 0.000200
vn -0.816900 -0.576800 -0.000000
vn 0.864200 0.503200 -0.000000
vn -0.816800 -0.576900 0.000000
usemtl Material
s off
f 2//1 3//1 4//1
f 1//2 5//2 6//2
f 2//3 6//3 7//3
f 7//4 8//4 4//4
f 1//5 4//5 8//5
f 17//6 19//6 20//6
f 1//1 2//1 4//1
f 2//2 1//2 6//2
f 3//3 2//3 7//3
f 3//4 7//4 4//4
f 5//5 1//5 8//5
f 18//7 17//7 20//7
usemtl Material.001
f 16//3 14//3 18//3
f 14//8 13//8 17//8
f 16//9 20//9 19//9
f 15//5 19//5 17//5
f 20//3 16//3 18//3
f 18//10 14//10 17//10
f 15//11 16//11 19//11
f 13//5 15//5 17//5
usemtl Material.002
f 12//12 16//12 15//12
f 11//5 15//5 13//5
f 12//3 10//3 14//3
f 10//13 9//13 13//13
f 11//14 12//14 15//14
f 9//5 11//5 13//5
f 16//3 12//3 14//3
f 14//15 10//15 13//15
usemtl Material.003
f 8//16 7//16 12//16
f 8//5 11//5 9//5
f 7//3 6//3 10//3
f 5//17 9//17 10//17
f 11//18 8//18 12//18
f 5//5 8//5 9//5
f 12//3 7//3 10//3
f 6//17 5//17 10//17
