# Blender v2.76 (sub 0) OBJ File: '3DAnimation.blend'
# www.blender.org
mtllib Animation_000033.mtl
o Cube
v 0.666026 0.292443 -0.665708
v 0.666026 0.292443 0.665708
v -0.665380 0.287263 0.665708
v -0.665380 0.287263 -0.665708
v 0.653894 1.598679 -0.665707
v 0.653899 1.598703 0.665708
v -0.666921 1.644526 0.665708
v -0.666925 1.644500 -0.665708
v 1.020054 2.505046 -0.665707
v 1.020064 2.505072 0.665708
v -0.172584 3.032424 -0.665708
v -0.172560 3.032449 0.665707
v 1.844440 3.045954 -0.665708
v 1.844223 3.045780 0.665708
v 1.055038 4.089934 -0.665708
v 1.054727 4.089805 0.665707
v 2.867101 3.355036 -0.665708
v 2.866784 3.348901 0.665708
v 2.412861 4.590581 -0.665708
v 2.407737 4.593973 0.665707
vn 0.003900 -1.000000 0.000000
vn 1.000000 0.009300 -0.000000
vn -0.000000 0.000000 1.000000
vn -1.000000 -0.001100 0.000000
vn 0.000000 0.000000 -1.000000
vn 0.938600 0.345100 0.002700
vn 0.938300 0.345900 0.001800
vn 0.289300 -0.957200 -0.004300
vn -0.349200 0.937100 0.000000
vn 0.284200 -0.958800 -0.000100
vn -0.345900 0.938200 -0.003700
vn -0.652700 0.757600 -0.000000
vn 0.548600 -0.836100 -0.000000
vn -0.652700 0.757600 -0.000100
vn -0.942000 0.335500 0.000000
vn 0.927200 -0.374600 0.000000
usemtl Material
s off
f 1//1 2//1 3//1
f 5//2 6//2 2//2
f 6//3 7//3 3//3
f 3//4 7//4 8//4
f 5//5 1//5 4//5
f 17//6 19//6 20//6
f 4//1 1//1 3//1
f 1//2 5//2 2//2
f 2//3 6//3 3//3
f 4//4 3//4 8//4
f 8//5 5//5 4//5
f 18//7 17//7 20//7
usemtl Material.001
f 14//3 18//3 20//3
f 13//8 17//8 18//8
f 15//9 16//9 20//9
f 13//5 15//5 19//5
f 16//3 14//3 20//3
f 14//10 13//10 18//10
f 19//11 15//11 20//11
f 17//5 13//5 19//5
usemtl Material.002
f 11//12 12//12 16//12
f 9//5 11//5 15//5
f 10//3 14//3 16//3
f 9//13 13//13 14//13
f 15//14 11//14 16//14
f 13//5 9//5 15//5
f 12//3 10//3 16//3
f 10//13 9//13 14//13
usemtl Material.003
f 7//15 12//15 11//15
f 5//5 8//5 11//5
f 6//3 10//3 12//3
f 6//16 5//16 9//16
f 8//15 7//15 11//15
f 9//5 5//5 11//5
f 7//3 6//3 12//3
f 10//16 6//16 9//16
