# Blender v2.76 (sub 0) OBJ File: '3DAnimation.blend'
# www.blender.org
mtllib Animation_000001.mtl
o Cube
v 0.665708 0.289852 -0.665708
v 0.665708 0.289852 0.665708
v -0.665708 0.289852 0.665708
v -0.665708 0.289852 -0.665708
v 0.665708 1.621268 -0.665707
v 0.665707 1.621268 0.665708
v -0.665708 1.621268 0.665708
v -0.665708 1.621268 -0.665708
v 0.665708 2.857957 -0.665707
v 0.665707 2.857957 0.665708
v -0.665708 2.857957 -0.665708
v -0.665708 2.857957 0.665708
v 0.665708 4.143137 -0.665707
v 0.665707 4.143137 0.665708
v -0.665708 4.143137 -0.665708
v -0.665708 4.143137 0.665708
v 0.665708 5.380073 -0.665707
v 0.665707 5.380073 0.665708
v -0.665708 5.380073 -0.665708
v -0.665708 5.380073 0.665708
vn 0.000000 -1.000000 0.000000
vn 1.000000 0.000000 0.000000
vn -0.000000 0.000000 1.000000
vn -1.000000 -0.000000 -0.000000
vn 0.000000 0.000000 -1.000000
vn 0.000000 1.000000 0.000000
usemtl Material
s off
f 1//1 2//1 3//1
f 5//2 6//2 2//2
f 6//3 7//3 3//3
f 7//4 8//4 4//4
f 1//5 4//5 8//5
f 19//6 20//6 18//6
f 4//1 1//1 3//1
f 1//2 5//2 2//2
f 2//3 6//3 3//3
f 3//4 7//4 4//4
f 5//5 1//5 8//5
f 17//6 19//6 18//6
usemtl Material.001
f 14//3 18//3 20//3
f 13//2 17//2 18//2
f 16//4 20//4 19//4
f 15//5 19//5 17//5
f 16//3 14//3 20//3
f 14//2 13//2 18//2
f 15//4 16//4 19//4
f 13//5 15//5 17//5
usemtl Material.002
f 12//4 16//4 15//4
f 11//5 15//5 13//5
f 10//3 14//3 16//3
f 9//2 13//2 14//2
f 11//4 12//4 15//4
f 9//5 11//5 13//5
f 12//3 10//3 16//3
f 10//2 9//2 14//2
usemtl Material.003
f 7//4 12//4 11//4
f 8//5 11//5 9//5
f 6//3 10//3 12//3
f 5//2 9//2 10//2
f 8//4 7//4 11//4
f 5//5 8//5 9//5
f 7//3 6//3 12//3
f 6//2 5//2 10//2
