# Blender v2.76 (sub 0) OBJ File: '3DAnimation.blend'
# www.blender.org
mtllib Animation_000044.mtl
o Cube
v 0.666427 0.295835 -0.665708
v 0.666427 0.295835 0.665708
v -0.664935 0.283876 0.665708
v -0.664935 0.283876 -0.665708
v 0.653906 1.639821 -0.665707
v 0.653906 1.639808 0.665708
v -0.674705 1.602793 0.665708
v -0.674707 1.602805 -0.665708
v 0.412092 2.974915 -0.665707
v 0.412099 2.974900 0.665708
v -0.882215 2.694520 -0.665708
v -0.882213 2.694505 0.665708
v -0.229397 4.287255 -0.665707
v -0.229506 4.287387 0.665708
v -1.407626 3.680624 -0.665708
v -1.407683 3.680767 0.665708
v -1.027158 5.367866 -0.665707
v -1.030369 5.367702 0.665708
v -2.103626 4.584130 -0.665708
v -2.102136 4.586979 0.665708
vn 0.009000 -1.000000 -0.000000
vn 1.000000 0.009300 0.000000
vn -0.000000 -0.000000 1.000000
vn -1.000000 -0.007400 0.000000
vn 0.000000 0.000000 -1.000000
vn -0.588600 0.808400 -0.001100
vn -0.588800 0.808300 -0.001300
vn 0.804500 0.593900 0.000000
vn -0.793700 -0.608300 0.002200
vn 0.803300 0.595500 0.002000
vn -0.792200 -0.610300 0.000000
vn -0.882600 -0.470200 0.000000
vn 0.898400 0.439200 0.000000
vn -0.882500 -0.470200 -0.000000
vn -0.982400 -0.186700 -0.000000
vn 0.984000 0.178200 -0.000000
usemtl Material
s off
f 2//1 3//1 4//1
f 1//2 5//2 6//2
f 2//3 6//3 7//3
f 7//4 8//4 4//4
f 1//5 4//5 8//5
f 17//6 19//6 20//6
f 1//1 2//1 4//1
f 2//2 1//2 6//2
f 3//3 2//3 7//3
f 3//4 7//4 4//4
f 5//5 1//5 8//5
f 18//7 17//7 20//7
usemtl Material.001
f 16//3 14//3 18//3
f 14//8 13//8 17//8
f 16//9 20//9 19//9
f 15//5 19//5 17//5
f 20//3 16//3 18//3
f 18//10 14//10 17//10
f 15//11 16//11 19//11
f 13//5 15//5 17//5
usemtl Material.002
f 12//12 16//12 15//12
f 11//5 15//5 13//5
f 12//3 10//3 14//3
f 10//13 9//13 13//13
f 11//14 12//14 15//14
f 9//5 11//5 13//5
f 16//3 12//3 14//3
f 14//13 10//13 13//13
usemtl Material.003
f 8//15 7//15 12//15
f 8//5 11//5 9//5
f 7//3 6//3 10//3
f 5//16 9//16 10//16
f 11//15 8//15 12//15
f 5//5 8//5 9//5
f 12//3 7//3 10//3
f 6//16 5//16 10//16
