# Blender v2.76 (sub 0) OBJ File: '3DAnimation.blend'
# www.blender.org
mtllib Animation_000042.mtl
o Cube
v 0.666032 0.292497 -0.665708
v 0.666032 0.292497 0.665708
v -0.665373 0.287209 0.665708
v -0.665373 0.287209 -0.665708
v 0.660841 1.629336 -0.665707
v 0.660840 1.629331 0.665708
v -0.670054 1.613213 0.665708
v -0.670054 1.613219 -0.665708
v 0.560349 2.915245 -0.665707
v 0.560350 2.915237 0.665708
v -0.763883 2.792067 -0.665708
v -0.763884 2.792059 0.665708
v 0.277651 4.252478 -0.665707
v 0.277620 4.252550 0.665708
v -1.021831 3.968943 -0.665708
v -1.021838 3.969018 0.665708
v -0.093124 5.483707 -0.665707
v -0.094585 5.484095 0.665708
v -1.370745 5.106497 -0.665708
v -1.369670 5.107557 0.665708
vn 0.004000 -1.000000 -0.000000
vn 1.000000 0.003900 0.000000
vn -0.000000 -0.000000 1.000000
vn -1.000000 -0.003500 0.000000
vn 0.000000 0.000000 -1.000000
vn -0.283200 0.959100 -0.000500
vn -0.283200 0.959100 -0.000600
vn 0.957500 0.288400 0.000000
vn -0.956400 -0.292200 0.001000
vn 0.957200 0.289300 0.001000
vn -0.956000 -0.293200 0.000000
vn -0.976800 -0.214100 0.000000
vn 0.978400 0.206800 0.000000
vn -0.996800 -0.079300 -0.000000
vn 0.997000 0.077900 -0.000000
usemtl Material
s off
f 2//1 3//1 4//1
f 1//2 5//2 6//2
f 2//3 6//3 7//3
f 7//4 8//4 4//4
f 1//5 4//5 8//5
f 17//6 19//6 20//6
f 1//1 2//1 4//1
f 2//2 1//2 6//2
f 3//3 2//3 7//3
f 3//4 7//4 4//4
f 5//5 1//5 8//5
f 18//7 17//7 20//7
usemtl Material.001
f 16//3 14//3 18//3
f 14//8 13//8 17//8
f 16//9 20//9 19//9
f 15//5 19//5 17//5
f 20//3 16//3 18//3
f 18//10 14//10 17//10
f 15//11 16//11 19//11
f 13//5 15//5 17//5
usemtl Material.002
f 12//12 16//12 15//12
f 11//5 15//5 13//5
f 12//3 10//3 14//3
f 10//13 9//13 13//13
f 11//12 12//12 15//12
f 9//5 11//5 13//5
f 16//3 12//3 14//3
f 14//13 10//13 13//13
usemtl Material.003
f 8//14 7//14 12//14
f 8//5 11//5 9//5
f 7//3 6//3 10//3
f 5//15 9//15 10//15
f 11//14 8//14 12//14
f 5//5 8//5 9//5
f 12//3 7//3 10//3
f 6//15 5//15 10//15
