# Blender v2.76 (sub 0) OBJ File: '3DAnimation.blend'
# www.blender.org
mtllib Animation_000071.mtl
o Cube
v 0.667338 0.304177 -0.665708
v 0.667338 0.304176 0.665708
v -0.663770 0.275567 0.665708
v -0.663770 0.275567 -0.665708
v 0.634893 1.659837 -0.665707
v 0.634896 1.659813 0.665708
v -0.685402 1.582825 0.665708
v -0.685408 1.582848 -0.665708
v 0.131184 3.033779 -0.665707
v 0.131206 3.033756 0.665708
v -1.060168 2.498766 -0.665708
v -1.060158 2.498741 0.665708
v -1.081275 4.092098 -0.665708
v -1.081569 4.092224 0.665708
v -1.882362 3.054896 -0.665708
v -1.882564 3.055068 0.665707
v -2.412685 4.623939 -0.665708
v -2.417578 4.620834 0.665707
v -2.903949 3.390381 -0.665708
v -2.904137 3.396173 0.665707
vn 0.021500 -0.999800 0.000000
vn 0.999700 0.023900 -0.000000
vn -0.000000 -0.000000 1.000000
vn -0.999900 -0.016500 0.000000
vn 0.000000 0.000000 -1.000000
vn -0.929000 0.370000 -0.001700
vn -0.929300 0.369200 -0.002600
vn 0.371000 0.928700 -0.000000
vn -0.316700 -0.948500 0.004100
vn 0.367900 0.929900 0.003500
vn -0.312000 -0.950100 0.000100
vn -0.560300 -0.828300 0.000000
vn 0.657600 0.753400 0.000000
vn 0.657600 0.753400 0.000100
vn -0.925500 -0.378700 -0.000000
vn 0.938900 0.344200 -0.000000
usemtl Material
s off
f 2//1 3//1 4//1
f 1//2 5//2 6//2
f 2//3 6//3 7//3
f 7//4 8//4 4//4
f 1//5 4//5 8//5
f 17//6 19//6 20//6
f 1//1 2//1 4//1
f 2//2 1//2 6//2
f 3//3 2//3 7//3
f 3//4 7//4 4//4
f 5//5 1//5 8//5
f 18//7 17//7 20//7
usemtl Material.001
f 16//3 14//3 18//3
f 14//8 13//8 17//8
f 16//9 20//9 19//9
f 15//5 19//5 17//5
f 20//3 16//3 18//3
f 18//10 14//10 17//10
f 15//11 16//11 19//11
f 13//5 15//5 17//5
usemtl Material.002
f 12//12 16//12 15//12
f 11//5 15//5 13//5
f 12//3 10//3 14//3
f 10//13 9//13 13//13
f 11//12 12//12 15//12
f 9//5 11//5 13//5
f 16//3 12//3 14//3
f 14//14 10//14 13//14
usemtl Material.003
f 8//15 7//15 12//15
f 8//5 11//5 9//5
f 7//3 6//3 10//3
f 5//16 9//16 10//16
f 11//15 8//15 12//15
f 5//5 8//5 9//5
f 12//3 7//3 10//3
f 6//16 5//16 10//16
