# Blender v2.76 (sub 0) OBJ File: '3DAnimation.blend'
# www.blender.org
mtllib Animation_000055.mtl
o Cube
v 0.669773 0.334631 -0.665708
v 0.669773 0.334631 0.665708
v -0.658652 0.245446 0.665708
v -0.658652 0.245446 -0.665708
v 0.558937 1.710479 -0.665707
v 0.558957 1.710433 0.665708
v -0.720235 1.529647 0.665708
v -0.720262 1.529690 -0.665708
v -0.578564 2.922183 -0.665707
v -0.578494 2.922174 0.665708
v -1.315280 1.950096 -0.665708
v -1.315237 1.950078 0.665708
v -2.438043 2.533437 -0.665707
v -2.438558 2.532941 0.665708
v -1.913070 1.412068 -0.665708
v -1.913473 1.411803 0.665708
v -3.378182 1.179444 -0.665708
v -3.374717 1.167495 0.665708
v -2.256766 0.518654 -0.665708
v -2.268817 0.521739 0.665707
vn 0.067000 -0.997800 -0.000000
vn 0.996800 0.080300 -0.000000
vn -0.000000 -0.000000 1.000000
vn -0.998900 -0.047900 0.000000
vn 0.000000 0.000000 -1.000000
vn -0.507700 -0.861600 -0.002600
vn -0.504200 -0.863500 -0.006400
vn -0.821400 0.570300 -0.000100
vn 0.928700 -0.370800 0.009300
vn -0.824700 0.565500 0.007200
vn 0.933300 -0.359000 0.000200
vn 0.668900 -0.743400 0.000100
vn -0.204600 0.978800 0.000000
vn 0.669000 -0.743300 -0.000000
vn -0.204800 0.978800 0.000300
vn -0.577100 -0.816700 -0.000000
vn 0.729100 0.684400 -0.000000
vn -0.577000 -0.816700 0.000000
usemtl Material
s off
f 1//1 2//1 3//1
f 1//2 5//2 6//2
f 2//3 6//3 7//3
f 7//4 8//4 4//4
f 1//5 4//5 8//5
f 17//6 19//6 20//6
f 4//1 1//1 3//1
f 2//2 1//2 6//2
f 3//3 2//3 7//3
f 3//4 7//4 4//4
f 5//5 1//5 8//5
f 18//7 17//7 20//7
usemtl Material.001
f 16//3 14//3 18//3
f 14//8 13//8 17//8
f 16//9 20//9 19//9
f 15//5 19//5 17//5
f 20//3 16//3 18//3
f 18//10 14//10 17//10
f 15//11 16//11 19//11
f 13//5 15//5 17//5
usemtl Material.002
f 12//12 16//12 15//12
f 11//5 15//5 13//5
f 12//3 10//3 14//3
f 10//13 9//13 13//13
f 11//14 12//14 15//14
f 9//5 11//5 13//5
f 16//3 12//3 14//3
f 14//15 10//15 13//15
usemtl Material.003
f 8//16 7//16 12//16
f 8//5 11//5 9//5
f 7//3 6//3 10//3
f 5//17 9//17 10//17
f 11//18 8//18 12//18
f 5//5 8//5 9//5
f 12//3 7//3 10//3
f 6//17 5//17 10//17
