# Blender v2.76 (sub 0) OBJ File: '3DAnimation.blend'
# www.blender.org
mtllib Animation_000077.mtl
o Cube
v 0.664487 0.280585 -0.665708
v 0.664487 0.280585 0.665708
v -0.666800 0.299136 0.665708
v -0.666800 0.299136 -0.665708
v 0.683214 1.615244 -0.665707
v 0.683213 1.615241 0.665708
v -0.647986 1.627055 0.665708
v -0.647986 1.627058 -0.665708
v 0.642385 2.883201 -0.665707
v 0.642385 2.883197 0.665708
v -0.687600 2.830784 -0.665708
v -0.687601 2.830781 0.665707
v 0.515687 4.200724 -0.665708
v 0.515676 4.200758 0.665708
v -0.809229 4.072190 -0.665708
v -0.809227 4.072225 0.665707
v 0.349438 5.448522 -0.665708
v 0.348809 5.448789 0.665707
v -0.971311 5.276608 -0.665709
v -0.970762 5.277014 0.665707
vn -0.013900 -0.999900 -0.000000
vn 0.999900 -0.014000 0.000000
vn -0.000000 -0.000000 1.000000
vn -0.999900 0.014200 0.000000
vn 0.000000 0.000000 -1.000000
vn -0.129100 0.991600 -0.000200
vn -0.129100 0.991600 -0.000300
vn 0.991200 0.132100 0.000000
vn -0.991100 -0.132900 0.000400
vn 0.991200 0.132500 0.000400
vn -0.991100 -0.133400 0.000000
vn -0.995200 -0.097500 0.000000
vn 0.995400 0.095700 0.000000
vn -0.999500 -0.032900 -0.000000
vn 0.999500 0.032200 -0.000000
usemtl Material
s off
f 2//1 3//1 4//1
f 1//2 5//2 6//2
f 2//3 6//3 7//3
f 7//4 8//4 4//4
f 1//5 4//5 8//5
f 17//6 19//6 20//6
f 1//1 2//1 4//1
f 2//2 1//2 6//2
f 3//3 2//3 7//3
f 3//4 7//4 4//4
f 5//5 1//5 8//5
f 18//7 17//7 20//7
usemtl Material.001
f 16//3 14//3 18//3
f 14//8 13//8 17//8
f 16//9 20//9 19//9
f 15//5 19//5 17//5
f 20//3 16//3 18//3
f 18//10 14//10 17//10
f 15//11 16//11 19//11
f 13//5 15//5 17//5
usemtl Material.002
f 12//12 16//12 15//12
f 11//5 15//5 13//5
f 12//3 10//3 14//3
f 10//13 9//13 13//13
f 11//12 12//12 15//12
f 9//5 11//5 13//5
f 16//3 12//3 14//3
f 14//13 10//13 13//13
usemtl Material.003
f 8//14 7//14 12//14
f 8//5 11//5 9//5
f 7//3 6//3 10//3
f 5//15 9//15 10//15
f 11//14 8//14 12//14
f 5//5 8//5 9//5
f 12//3 7//3 10//3
f 6//15 5//15 10//15
