# Blender v2.76 (sub 0) OBJ File: '3DAnimation.blend'
# www.blender.org
mtllib Animation_000039.mtl
o Cube
v 0.665900 0.291410 -0.665708
v 0.665900 0.291410 0.665708
v -0.665512 0.288295 0.665708
v -0.665512 0.288295 -0.665708
v 0.662433 1.619031 -0.665707
v 0.662433 1.619035 0.665708
v -0.668768 1.623512 0.665708
v -0.668768 1.623508 -0.665708
v 0.723116 2.818224 -0.665707
v 0.723115 2.818228 0.665708
v -0.605693 2.894099 -0.665708
v -0.605691 2.894102 0.665708
v 0.867471 4.057256 -0.665707
v 0.867471 4.057221 0.665708
v -0.454942 4.209293 -0.665708
v -0.454952 4.209259 0.665708
v 1.051212 5.258243 -0.665708
v 1.051772 5.257812 0.665708
v -0.264894 5.454607 -0.665708
v -0.265550 5.454344 0.665707
vn 0.002300 -1.000000 0.000000
vn 1.000000 0.002600 0.000000
vn -0.000000 0.000000 1.000000
vn -1.000000 -0.002400 -0.000000
vn 0.000000 0.000000 -1.000000
vn 0.147600 0.989100 0.000300
vn 0.988500 -0.151200 -0.000500
vn -0.988600 0.150400 -0.000000
vn 0.988400 -0.151700 -0.000000
vn -0.988600 0.150900 -0.000500
vn -0.993500 0.113900 0.000000
vn 0.993300 -0.115700 -0.000000
vn -0.998800 0.049600 0.000000
vn 0.998700 -0.050500 0.000000
usemtl Material
s off
f 1//1 2//1 3//1
f 5//2 6//2 2//2
f 6//3 7//3 3//3
f 3//4 7//4 8//4
f 5//5 1//5 4//5
f 17//6 19//6 20//6
f 4//1 1//1 3//1
f 1//2 5//2 2//2
f 2//3 6//3 3//3
f 4//4 3//4 8//4
f 8//5 5//5 4//5
f 18//6 17//6 20//6
usemtl Material.001
f 14//3 18//3 20//3
f 13//7 17//7 18//7
f 15//8 16//8 20//8
f 13//5 15//5 19//5
f 16//3 14//3 20//3
f 14//9 13//9 18//9
f 19//10 15//10 20//10
f 17//5 13//5 19//5
usemtl Material.002
f 11//11 12//11 16//11
f 9//5 11//5 15//5
f 10//3 14//3 16//3
f 9//12 13//12 14//12
f 15//11 11//11 16//11
f 13//5 9//5 15//5
f 12//3 10//3 16//3
f 10//12 9//12 14//12
usemtl Material.003
f 7//13 12//13 11//13
f 5//5 8//5 11//5
f 6//3 10//3 12//3
f 6//14 5//14 9//14
f 8//13 7//13 11//13
f 9//5 5//5 11//5
f 7//3 6//3 12//3
f 10//14 6//14 9//14
