# Blender v2.76 (sub 0) OBJ File: '3DAnimation.blend'
# www.blender.org
mtllib Animation_000068.mtl
o Cube
v 0.668757 0.319749 -0.665708
v 0.668757 0.319749 0.665708
v -0.661323 0.260123 0.665708
v -0.661322 0.260123 -0.665708
v 0.597911 1.687017 -0.665707
v 0.597921 1.686981 0.665708
v -0.705013 1.554777 0.665708
v -0.705029 1.554811 -0.665708
v -0.233818 3.023288 -0.665707
v -0.233771 3.023265 0.665708
v -1.223619 2.229449 -0.665708
v -1.223592 2.229421 0.665708
v -1.958271 3.449265 -0.665708
v -1.958780 3.449167 0.665708
v -2.093155 2.176778 -0.665708
v -2.093539 2.176805 0.665707
v -3.434783 2.983322 -0.665708
v -3.437963 2.974753 0.665707
v -3.001760 1.738863 -0.665708
v -3.007524 1.745954 0.665707
vn 0.044800 -0.999000 -0.000000
vn 0.998700 0.051700 -0.000000
vn -0.000000 -0.000000 1.000000
vn -0.999400 -0.033700 0.000000
vn 0.000000 0.000000 -1.000000
vn -0.944500 -0.328600 -0.002300
vn -0.943800 -0.330600 -0.004400
vn -0.300900 0.953600 -0.000000
vn 0.426400 -0.904500 0.006700
vn -0.305400 0.952200 0.005400
vn 0.434200 -0.900800 0.000100
vn 0.060400 -0.998200 0.000000
vn 0.239800 0.970800 0.000000
vn 0.060500 -0.998200 -0.000000
vn 0.239700 0.970800 0.000200
vn -0.792800 -0.609400 -0.000000
vn 0.849000 0.528400 -0.000000
usemtl Material
s off
f 2//1 3//1 4//1
f 1//2 5//2 6//2
f 2//3 6//3 7//3
f 7//4 8//4 4//4
f 1//5 4//5 8//5
f 17//6 19//6 20//6
f 1//1 2//1 4//1
f 2//2 1//2 6//2
f 3//3 2//3 7//3
f 3//4 7//4 4//4
f 5//5 1//5 8//5
f 18//7 17//7 20//7
usemtl Material.001
f 16//3 14//3 18//3
f 14//8 13//8 17//8
f 16//9 20//9 19//9
f 15//5 19//5 17//5
f 20//3 16//3 18//3
f 18//10 14//10 17//10
f 15//11 16//11 19//11
f 13//5 15//5 17//5
usemtl Material.002
f 12//12 16//12 15//12
f 11//5 15//5 13//5
f 12//3 10//3 14//3
f 10//13 9//13 13//13
f 11//14 12//14 15//14
f 9//5 11//5 13//5
f 16//3 12//3 14//3
f 14//15 10//15 13//15
usemtl Material.003
f 8//16 7//16 12//16
f 8//5 11//5 9//5
f 7//3 6//3 10//3
f 5//17 9//17 10//17
f 11//16 8//16 12//16
f 5//5 8//5 9//5
f 12//3 7//3 10//3
f 6//17 5//17 10//17
