# Blender v2.76 (sub 0) OBJ File: '3DAnimation.blend'
# www.blender.org
mtllib Animation_000034.mtl
o Cube
v 0.665993 0.292174 -0.665708
v 0.665993 0.292174 0.665708
v -0.665414 0.287532 0.665708
v -0.665414 0.287532 -0.665708
v 0.656179 1.602165 -0.665707
v 0.656183 1.602185 0.665708
v -0.667698 1.640845 0.665708
v -0.667700 1.640824 -0.665708
v 0.975496 2.569457 -0.665707
v 0.975502 2.569480 0.665708
v -0.257018 3.019580 -0.665708
v -0.257000 3.019602 0.665708
v 1.726267 3.273046 -0.665708
v 1.726110 3.272867 0.665708
v 0.783927 4.191118 -0.665708
v 0.783691 4.190970 0.665707
v 2.681265 3.802127 -0.665708
v 2.681925 3.797026 0.665708
v 1.989323 4.926427 -0.665708
v 1.984593 4.928451 0.665707
vn 0.003500 -1.000000 0.000000
vn 1.000000 0.007500 -0.000000
vn -0.000000 0.000000 1.000000
vn -1.000000 -0.001700 0.000000
vn 0.000000 0.000000 -1.000000
vn 0.851600 0.524100 0.002200
vn 0.851300 0.524700 0.001600
vn 0.484600 -0.874700 -0.003600
vn -0.523300 0.852100 0.000000
vn 0.480800 -0.876800 -0.000100
vn -0.520800 0.853700 -0.003100
vn -0.747600 0.664200 -0.000000
vn 0.683800 -0.729700 -0.000000
vn -0.747500 0.664200 -0.000100
vn -0.958400 0.285500 0.000000
vn 0.949600 -0.313500 0.000000
usemtl Material
s off
f 2//1 3//1 4//1
f 5//2 6//2 2//2
f 6//3 7//3 3//3
f 3//4 7//4 8//4
f 5//5 1//5 4//5
f 17//6 19//6 20//6
f 1//1 2//1 4//1
f 1//2 5//2 2//2
f 2//3 6//3 3//3
f 4//4 3//4 8//4
f 8//5 5//5 4//5
f 18//7 17//7 20//7
usemtl Material.001
f 14//3 18//3 20//3
f 13//8 17//8 18//8
f 15//9 16//9 20//9
f 13//5 15//5 19//5
f 16//3 14//3 20//3
f 14//10 13//10 18//10
f 19//11 15//11 20//11
f 17//5 13//5 19//5
usemtl Material.002
f 11//12 12//12 16//12
f 9//5 11//5 15//5
f 10//3 14//3 16//3
f 9//13 13//13 14//13
f 15//14 11//14 16//14
f 13//5 9//5 15//5
f 12//3 10//3 16//3
f 10//13 9//13 14//13
usemtl Material.003
f 7//15 12//15 11//15
f 5//5 8//5 11//5
f 6//3 10//3 12//3
f 6//16 5//16 9//16
f 8//15 7//15 11//15
f 9//5 5//5 11//5
f 7//3 6//3 12//3
f 10//16 6//16 9//16
