# Blender v2.76 (sub 0) OBJ File: '3DAnimation.blend'
# www.blender.org
mtllib Animation_000072.mtl
o Cube
v 0.666796 0.299099 -0.665708
v 0.666796 0.299099 0.665708
v -0.664492 0.280621 0.665708
v -0.664491 0.280621 -0.665708
v 0.646100 1.650474 -0.665707
v 0.646102 1.650455 0.665708
v -0.678173 1.592277 0.665708
v -0.678177 1.592295 -0.665708
v 0.248211 3.017174 -0.665707
v 0.248227 3.017153 0.665708
v -0.991720 2.580104 -0.665708
v -0.991714 2.580082 0.665708
v -0.741643 4.208492 -0.665708
v -0.741854 4.208636 0.665708
v -1.720097 3.325783 -0.665708
v -1.720232 3.325956 0.665707
v -1.887093 5.004816 -0.665708
v -1.891495 5.003190 0.665707
v -2.650385 3.915870 -0.665709
v -2.649549 3.920487 0.665707
vn 0.013900 -0.999900 -0.000000
vn 0.999900 0.015300 -0.000000
vn -0.000000 -0.000000 1.000000
vn -0.999900 -0.010400 0.000000
vn 0.000000 0.000000 -1.000000
vn -0.818900 0.574000 -0.001500
vn -0.819200 0.573500 -0.002000
vn 0.570800 0.821100 0.000000
vn -0.538900 -0.842400 0.003300
vn 0.568600 0.822600 0.002900
vn -0.535600 -0.844400 0.000100
vn -0.715400 -0.698700 0.000000
vn 0.769100 0.639100 0.000000
vn -0.715400 -0.698800 -0.000000
vn 0.769100 0.639100 0.000100
vn -0.953100 -0.302500 -0.000000
vn 0.960100 0.279500 -0.000000
usemtl Material
s off
f 1//1 2//1 3//1
f 1//2 5//2 6//2
f 2//3 6//3 7//3
f 7//4 8//4 4//4
f 1//5 4//5 8//5
f 17//6 19//6 20//6
f 4//1 1//1 3//1
f 2//2 1//2 6//2
f 3//3 2//3 7//3
f 3//4 7//4 4//4
f 5//5 1//5 8//5
f 18//7 17//7 20//7
usemtl Material.001
f 16//3 14//3 18//3
f 14//8 13//8 17//8
f 16//9 20//9 19//9
f 15//5 19//5 17//5
f 20//3 16//3 18//3
f 18//10 14//10 17//10
f 15//11 16//11 19//11
f 13//5 15//5 17//5
usemtl Material.002
f 12//12 16//12 15//12
f 11//5 15//5 13//5
f 12//3 10//3 14//3
f 10//13 9//13 13//13
f 11//14 12//14 15//14
f 9//5 11//5 13//5
f 16//3 12//3 14//3
f 14//15 10//15 13//15
usemtl Material.003
f 8//16 7//16 12//16
f 8//5 11//5 9//5
f 7//3 6//3 10//3
f 5//17 9//17 10//17
f 11//16 8//16 12//16
f 5//5 8//5 9//5
f 12//3 7//3 10//3
f 6//17 5//17 10//17
