# Blender v2.76 (sub 0) OBJ File: '3DAnimation.blend'
# www.blender.org
mtllib Animation_000008.mtl
o Cube
v 0.665906 0.291461 -0.665708
v 0.665906 0.291461 0.665708
v -0.665505 0.288244 0.665708
v -0.665505 0.288244 -0.665708
v 0.659259 1.605938 -0.665707
v 0.659262 1.605954 0.665708
v -0.667511 1.636891 0.665708
v -0.667512 1.636875 -0.665708
v 0.918598 2.639288 -0.665707
v 0.918601 2.639308 0.665708
v -0.350452 2.998497 -0.665708
v -0.350440 2.998516 0.665708
v 1.564697 3.492670 -0.665708
v 1.564596 3.492502 0.665708
v 0.489518 4.259918 -0.665708
v 0.489351 4.259770 0.665707
v 2.406713 4.226005 -0.665708
v 2.407979 4.222044 0.665708
v 1.503438 5.193169 -0.665708
v 1.499382 5.194090 0.665707
vn 0.002400 -1.000000 0.000000
vn 1.000000 0.005100 -0.000000
vn -0.000000 0.000000 1.000000
vn -1.000000 -0.001500 0.000000
vn 0.000000 0.000000 -1.000000
vn 0.730800 0.682600 0.001800
vn 0.730500 0.682900 0.001300
vn 0.656800 -0.754100 -0.002900
vn -0.679100 0.734100 -0.000000
vn 0.654200 -0.756300 -0.000000
vn -0.677200 0.735800 -0.002600
vn -0.832400 0.554200 -0.000000
vn 0.797300 -0.603600 -0.000000
vn -0.832300 0.554300 -0.000000
vn -0.973900 0.226800 0.000000
vn 0.969900 -0.243400 0.000000
usemtl Material
s off
f 1//1 2//1 3//1
f 5//2 6//2 2//2
f 6//3 7//3 3//3
f 3//4 7//4 8//4
f 5//5 1//5 4//5
f 17//6 19//6 20//6
f 4//1 1//1 3//1
f 1//2 5//2 2//2
f 2//3 6//3 3//3
f 4//4 3//4 8//4
f 8//5 5//5 4//5
f 18//7 17//7 20//7
usemtl Material.001
f 14//3 18//3 20//3
f 13//8 17//8 18//8
f 15//9 16//9 20//9
f 13//5 15//5 19//5
f 16//3 14//3 20//3
f 14//10 13//10 18//10
f 19//11 15//11 20//11
f 17//5 13//5 19//5
usemtl Material.002
f 11//12 12//12 16//12
f 9//5 11//5 15//5
f 10//3 14//3 16//3
f 9//13 13//13 14//13
f 15//14 11//14 16//14
f 13//5 9//5 15//5
f 12//3 10//3 16//3
f 10//13 9//13 14//13
usemtl Material.003
f 7//15 12//15 11//15
f 5//5 8//5 11//5
f 6//3 10//3 12//3
f 6//16 5//16 9//16
f 8//15 7//15 11//15
f 9//5 5//5 11//5
f 7//3 6//3 12//3
f 10//16 6//16 9//16
