# Blender v2.76 (sub 0) OBJ File: '3DAnimation.blend'
# www.blender.org
mtllib Animation_000045.mtl
o Cube
v 0.666708 0.298308 -0.665708
v 0.666708 0.298308 0.665708
v -0.664601 0.281410 0.665708
v -0.664600 0.281410 -0.665708
v 0.648498 1.646105 -0.665707
v 0.648499 1.646089 0.665708
v -0.678067 1.596538 0.665708
v -0.678070 1.596554 -0.665708
v 0.325247 3.000108 -0.665707
v 0.325258 3.000089 0.665708
v -0.942923 2.635575 -0.665708
v -0.942919 2.635556 0.665708
v -0.511266 4.258864 -0.665707
v -0.511433 4.259011 0.665708
v -1.587590 3.492713 -0.665708
v -1.587691 3.492880 0.665708
v -1.517913 5.195095 -0.665707
v -1.521945 5.194188 0.665708
v -2.429105 4.225432 -0.665708
v -2.427837 4.229365 0.665708
vn 0.012700 -0.999900 -0.000000
vn 0.999900 0.013500 -0.000000
vn -0.000000 -0.000000 1.000000
vn -0.999900 -0.010200 0.000000
vn 0.000000 0.000000 -1.000000
vn -0.728700 0.684800 -0.001300
vn -0.729000 0.684500 -0.001700
vn 0.681000 0.732300 0.000000
vn -0.659200 -0.752000 0.002800
vn 0.679200 0.733900 0.002600
vn -0.656700 -0.754200 0.000000
vn -0.799200 -0.601100 0.000000
vn 0.832900 0.553500 0.000000
vn 0.832800 0.553500 0.000000
vn -0.969000 -0.247000 -0.000000
vn 0.972700 0.232200 -0.000000
usemtl Material
s off
f 2//1 3//1 4//1
f 1//2 5//2 6//2
f 2//3 6//3 7//3
f 7//4 8//4 4//4
f 1//5 4//5 8//5
f 17//6 19//6 20//6
f 1//1 2//1 4//1
f 2//2 1//2 6//2
f 3//3 2//3 7//3
f 3//4 7//4 4//4
f 5//5 1//5 8//5
f 18//7 17//7 20//7
usemtl Material.001
f 16//3 14//3 18//3
f 14//8 13//8 17//8
f 16//9 20//9 19//9
f 15//5 19//5 17//5
f 20//3 16//3 18//3
f 18//10 14//10 17//10
f 15//11 16//11 19//11
f 13//5 15//5 17//5
usemtl Material.002
f 12//12 16//12 15//12
f 11//5 15//5 13//5
f 12//3 10//3 14//3
f 10//13 9//13 13//13
f 11//12 12//12 15//12
f 9//5 11//5 13//5
f 16//3 12//3 14//3
f 14//14 10//14 13//14
usemtl Material.003
f 8//15 7//15 12//15
f 8//5 11//5 9//5
f 7//3 6//3 10//3
f 5//16 9//16 10//16
f 11//15 8//15 12//15
f 5//5 8//5 9//5
f 12//3 7//3 10//3
f 6//16 5//16 10//16
