# Blender v2.76 (sub 0) OBJ File: '3DAnimation.blend'
# www.blender.org
mtllib Animation_000036.mtl
o Cube
v 0.665941 0.291742 -0.665708
v 0.665941 0.291742 0.665708
v -0.665470 0.287963 0.665708
v -0.665469 0.287963 -0.665708
v 0.659698 1.609189 -0.665707
v 0.659700 1.609203 0.665708
v -0.668611 1.633538 0.665708
v -0.668612 1.633524 -0.665708
v 0.877158 2.685157 -0.665707
v 0.877159 2.685173 0.665708
v -0.413640 2.978483 -0.665708
v -0.413632 2.978498 0.665708
v 1.416227 3.665540 -0.665707
v 1.416167 3.665398 0.665708
v 0.244407 4.284495 -0.665708
v 0.244298 4.284364 0.665708
v 2.119913 4.564240 -0.665708
v 2.121378 4.561367 0.665708
v 1.056583 5.356370 -0.665708
v 1.053364 5.356569 0.665707
vn 0.002800 -1.000000 0.000000
vn 1.000000 0.004700 -0.000000
vn -0.000000 0.000000 1.000000
vn -1.000000 -0.002300 0.000000
vn 0.000000 0.000000 -1.000000
vn 0.597400 0.801900 0.001300
vn 0.597200 0.802100 0.001100
vn 0.787400 -0.616500 -0.002200
vn -0.798200 0.602300 -0.000000
vn 0.785800 -0.618500 -0.000000
vn -0.797000 0.603900 -0.002000
vn -0.893100 0.449900 0.000000
vn 0.876300 -0.481800 -0.000000
vn -0.893000 0.450000 -0.000000
vn -0.982500 0.186300 0.000000
vn 0.980200 -0.198100 0.000000
usemtl Material
s off
f 1//1 2//1 3//1
f 5//2 6//2 2//2
f 6//3 7//3 3//3
f 3//4 7//4 8//4
f 5//5 1//5 4//5
f 17//6 19//6 20//6
f 4//1 1//1 3//1
f 1//2 5//2 2//2
f 2//3 6//3 3//3
f 4//4 3//4 8//4
f 8//5 5//5 4//5
f 18//7 17//7 20//7
usemtl Material.001
f 14//3 18//3 20//3
f 13//8 17//8 18//8
f 15//9 16//9 20//9
f 13//5 15//5 19//5
f 16//3 14//3 20//3
f 14//10 13//10 18//10
f 19//11 15//11 20//11
f 17//5 13//5 19//5
usemtl Material.002
f 11//12 12//12 16//12
f 9//5 11//5 15//5
f 10//3 14//3 16//3
f 9//13 13//13 14//13
f 15//14 11//14 16//14
f 13//5 9//5 15//5
f 12//3 10//3 16//3
f 10//13 9//13 14//13
usemtl Material.003
f 7//15 12//15 11//15
f 5//5 8//5 11//5
f 6//3 10//3 12//3
f 6//16 5//16 9//16
f 8//15 7//15 11//15
f 9//5 5//5 11//5
f 7//3 6//3 12//3
f 10//16 6//16 9//16
