# Blender v2.76 (sub 0) OBJ File: '3DAnimation.blend'
# www.blender.org
mtllib Animation_000010.mtl
o Cube
v 0.666017 0.292373 -0.665708
v 0.666017 0.292373 0.665708
v -0.665389 0.287333 0.665708
v -0.665388 0.287333 -0.665708
v 0.653499 1.597623 -0.665707
v 0.653506 1.597648 0.665708
v -0.666397 1.645642 0.665708
v -0.666401 1.645616 -0.665708
v 1.030557 2.486475 -0.665708
v 1.030569 2.486502 0.665708
v -0.148056 3.035626 -0.665708
v -0.148029 3.035652 0.665707
v 1.873332 2.955023 -0.665708
v 1.873091 2.954855 0.665708
v 1.151938 4.042702 -0.665708
v 1.151595 4.042587 0.665707
v 2.911262 3.171124 -0.665708
v 2.910441 3.164639 0.665708
v 2.559807 4.438054 -0.665708
v 2.554637 4.442057 0.665707
vn 0.003800 -1.000000 0.000000
vn 1.000000 0.009600 -0.000000
vn -0.000000 0.000000 1.000000
vn -1.000000 -0.000700 0.000000
vn 0.000000 0.000000 -1.000000
vn 0.963600 0.267300 0.002900
vn 0.963300 0.268300 0.001900
vn 0.203800 -0.979000 -0.004600
vn -0.273800 0.961800 0.000000
vn 0.198200 -0.980200 -0.000100
vn -0.270400 0.962800 -0.003900
vn -0.612500 0.790500 -0.000000
vn 0.485900 -0.874000 -0.000000
vn -0.612400 0.790500 -0.000100
vn -0.937000 0.349400 0.000000
vn 0.920600 -0.390500 0.000000
usemtl Material
s off
f 1//1 2//1 3//1
f 5//2 6//2 2//2
f 6//3 7//3 3//3
f 3//4 7//4 8//4
f 5//5 1//5 4//5
f 17//6 19//6 20//6
f 4//1 1//1 3//1
f 1//2 5//2 2//2
f 2//3 6//3 3//3
f 4//4 3//4 8//4
f 8//5 5//5 4//5
f 18//7 17//7 20//7
usemtl Material.001
f 14//3 18//3 20//3
f 13//8 17//8 18//8
f 15//9 16//9 20//9
f 13//5 15//5 19//5
f 16//3 14//3 20//3
f 14//10 13//10 18//10
f 19//11 15//11 20//11
f 17//5 13//5 19//5
usemtl Material.002
f 11//12 12//12 16//12
f 9//5 11//5 15//5
f 10//3 14//3 16//3
f 9//13 13//13 14//13
f 15//14 11//14 16//14
f 13//5 9//5 15//5
f 12//3 10//3 16//3
f 10//13 9//13 14//13
usemtl Material.003
f 7//15 12//15 11//15
f 5//5 8//5 11//5
f 6//3 10//3 12//3
f 6//16 5//16 9//16
f 8//15 7//15 11//15
f 9//5 5//5 11//5
f 7//3 6//3 12//3
f 10//16 6//16 9//16
