# Blender v2.76 (sub 0) OBJ File: '3DAnimation.blend'
# www.blender.org
mtllib Animation_000064.mtl
o Cube
v 0.669842 0.335864 -0.665708
v 0.669842 0.335864 0.665708
v -0.658417 0.244234 0.665708
v -0.658417 0.244235 -0.665708
v 0.556148 1.711786 -0.665707
v 0.556168 1.711740 0.665708
v -0.722003 1.528083 0.665708
v -0.722029 1.528126 -0.665708
v -0.591490 2.917084 -0.665707
v -0.591419 2.917076 0.665708
v -1.318841 1.940063 -0.665708
v -1.318798 1.940046 0.665708
v -2.447896 2.500481 -0.665708
v -2.448405 2.499974 0.665708
v -1.903661 1.389589 -0.665708
v -1.904059 1.389317 0.665707
v -3.363265 1.127696 -0.665708
v -3.359565 1.115783 0.665707
v -2.229275 0.489127 -0.665708
v -2.241415 0.491991 0.665707
vn 0.068800 -0.997600 -0.000000
vn 0.996600 0.082400 -0.000000
vn -0.000000 -0.000000 1.000000
vn -0.998800 -0.049500 0.000000
vn 0.000000 0.000000 -1.000000
vn -0.490700 -0.871300 -0.002600
vn 0.996600 0.082300 0.000000
vn -0.487200 -0.873300 -0.006500
vn -0.832000 0.554800 -0.000100
vn 0.936000 -0.351900 0.009300
vn -0.835300 0.549800 0.007200
vn 0.940400 -0.340100 0.000200
vn 0.685300 -0.728300 0.000100
vn -0.219000 0.975700 0.000000
vn 0.685400 -0.728200 -0.000000
vn -0.219200 0.975700 0.000300
vn -0.568100 -0.823000 -0.000000
vn 0.724200 0.689600 -0.000000
vn 0.724200 0.689500 0.000000
usemtl Material
s off
f 2//1 3//1 4//1
f 1//2 5//2 6//2
f 2//3 6//3 7//3
f 7//4 8//4 4//4
f 1//5 4//5 8//5
f 17//6 19//6 20//6
f 1//1 2//1 4//1
f 2//7 1//7 6//7
f 3//3 2//3 7//3
f 3//4 7//4 4//4
f 5//5 1//5 8//5
f 18//8 17//8 20//8
usemtl Material.001
f 16//3 14//3 18//3
f 14//9 13//9 17//9
f 16//10 20//10 19//10
f 15//5 19//5 17//5
f 20//3 16//3 18//3
f 18//11 14//11 17//11
f 15//12 16//12 19//12
f 13//5 15//5 17//5
usemtl Material.002
f 12//13 16//13 15//13
f 11//5 15//5 13//5
f 12//3 10//3 14//3
f 10//14 9//14 13//14
f 11//15 12//15 15//15
f 9//5 11//5 13//5
f 16//3 12//3 14//3
f 14//16 10//16 13//16
usemtl Material.003
f 8//17 7//17 12//17
f 8//5 11//5 9//5
f 7//3 6//3 10//3
f 5//18 9//18 10//18
f 11//17 8//17 12//17
f 5//5 8//5 9//5
f 12//3 7//3 10//3
f 6//19 5//19 10//19
