# Blender v2.76 (sub 0) OBJ File: '3DAnimation.blend'
# www.blender.org
mtllib Animation_000037.mtl
o Cube
v 0.665922 0.291587 -0.665708
v 0.665922 0.291587 0.665708
v -0.665489 0.288118 0.665708
v -0.665489 0.288118 -0.665708
v 0.660929 1.612606 -0.665707
v 0.660929 1.612616 0.665708
v -0.668792 1.630031 0.665708
v -0.668792 1.630021 -0.665708
v 0.825638 2.735078 -0.665707
v 0.825637 2.735090 0.665708
v -0.483780 2.952311 -0.665708
v -0.483775 2.952322 0.665708
v 1.237855 3.822994 -0.665707
v 1.237827 3.822884 0.665708
v -0.008180 4.282909 -0.665708
v -0.008243 4.282805 0.665708
v 1.777170 4.857394 -0.665708
v 1.778542 4.855511 0.665708
v 0.590147 5.452846 -0.665708
v 0.587827 5.452621 0.665707
vn 0.002600 -1.000000 -0.000000
vn 1.000000 0.003800 -0.000000
vn -0.000000 0.000000 1.000000
vn -1.000000 -0.002500 -0.000000
vn 0.000000 0.000000 -1.000000
vn 0.448400 0.893800 0.000900
vn 0.448300 0.893900 0.000800
vn 0.886700 -0.462300 -0.001600
vn -0.891000 0.454000 -0.000000
vn 0.885900 -0.463900 -0.000000
vn -0.890300 0.455300 -0.001500
vn -0.941700 0.336600 0.000000
vn 0.935100 -0.354300 -0.000000
vn -0.990400 0.138600 0.000000
vn 0.989400 -0.145200 0.000000
usemtl Material
s off
f 2//1 3//1 4//1
f 5//2 6//2 2//2
f 6//3 7//3 3//3
f 3//4 7//4 8//4
f 5//5 1//5 4//5
f 17//6 19//6 20//6
f 1//1 2//1 4//1
f 1//2 5//2 2//2
f 2//3 6//3 3//3
f 4//4 3//4 8//4
f 8//5 5//5 4//5
f 18//7 17//7 20//7
usemtl Material.001
f 14//3 18//3 20//3
f 13//8 17//8 18//8
f 15//9 16//9 20//9
f 13//5 15//5 19//5
f 16//3 14//3 20//3
f 14//10 13//10 18//10
f 19//11 15//11 20//11
f 17//5 13//5 19//5
usemtl Material.002
f 11//12 12//12 16//12
f 9//5 11//5 15//5
f 10//3 14//3 16//3
f 9//13 13//13 14//13
f 15//12 11//12 16//12
f 13//5 9//5 15//5
f 12//3 10//3 16//3
f 10//13 9//13 14//13
usemtl Material.003
f 7//14 12//14 11//14
f 5//5 8//5 11//5
f 6//3 10//3 12//3
f 6//15 5//15 9//15
f 8//14 7//14 11//14
f 9//5 5//5 11//5
f 7//3 6//3 12//3
f 10//15 6//15 9//15
