# Blender v2.76 (sub 0) OBJ File: '3DAnimation.blend'
# www.blender.org
mtllib Animation_000004.mtl
o Cube
v 0.665746 0.290158 -0.665708
v 0.665746 0.290158 0.665708
v -0.665670 0.289547 0.665708
v -0.665669 0.289547 -0.665708
v 0.664845 1.618359 -0.665707
v 0.664844 1.618362 0.665708
v -0.666410 1.624186 0.665708
v -0.666409 1.624183 -0.665708
v 0.718118 2.822458 -0.665707
v 0.718116 2.822462 0.665708
v -0.611117 2.890728 -0.665708
v -0.611116 2.890732 0.665708
v 0.860332 4.057787 -0.665707
v 0.860332 4.057748 0.665708
v -0.462010 4.209778 -0.665708
v -0.462021 4.209740 0.665708
v 1.048805 5.255643 -0.665707
v 1.049423 5.255167 0.665708
v -0.266480 5.456821 -0.665708
v -0.267205 5.456531 0.665707
vn 0.000500 -1.000000 0.000000
vn 1.000000 0.000700 0.000000
vn -0.000000 0.000000 1.000000
vn -1.000000 -0.000600 -0.000000
vn 0.000000 0.000000 -1.000000
vn 0.151200 0.988500 0.000300
vn 0.987800 -0.155400 -0.000500
vn -0.988000 0.154400 -0.000000
vn 0.987800 -0.156000 -0.000000
vn -0.987900 0.154900 -0.000500
vn -0.993700 0.112300 0.000000
vn 0.993400 -0.114400 -0.000000
vn -0.999000 0.043600 0.000000
vn 0.999000 -0.044200 0.000000
usemtl Material
s off
f 1//1 2//1 3//1
f 5//2 6//2 2//2
f 6//3 7//3 3//3
f 3//4 7//4 8//4
f 5//5 1//5 4//5
f 17//6 19//6 20//6
f 4//1 1//1 3//1
f 1//2 5//2 2//2
f 2//3 6//3 3//3
f 4//4 3//4 8//4
f 8//5 5//5 4//5
f 18//6 17//6 20//6
usemtl Material.001
f 14//3 18//3 20//3
f 13//7 17//7 18//7
f 15//8 16//8 20//8
f 13//5 15//5 19//5
f 16//3 14//3 20//3
f 14//9 13//9 18//9
f 19//10 15//10 20//10
f 17//5 13//5 19//5
usemtl Material.002
f 11//11 12//11 16//11
f 9//5 11//5 15//5
f 10//3 14//3 16//3
f 9//12 13//12 14//12
f 15//11 11//11 16//11
f 13//5 9//5 15//5
f 12//3 10//3 16//3
f 10//12 9//12 14//12
usemtl Material.003
f 7//13 12//13 11//13
f 5//5 8//5 11//5
f 6//3 10//3 12//3
f 6//14 5//14 9//14
f 8//13 7//13 11//13
f 9//5 5//5 11//5
f 7//3 6//3 12//3
f 10//14 6//14 9//14
