# Blender v2.76 (sub 0) OBJ File: '3DAnimation.blend'
# www.blender.org
mtllib Animation_000026.mtl
o Cube
v 0.666281 0.294585 -0.665708
v 0.666281 0.294585 0.665708
v -0.665101 0.285124 0.665708
v -0.665101 0.285124 -0.665708
v 0.633721 1.580737 -0.665707
v 0.633742 1.580780 0.665708
v -0.657507 1.664343 0.665708
v -0.657523 1.664297 -0.665708
v 1.190106 2.068954 -0.665707
v 1.190146 2.068978 0.665708
v 0.358879 2.969081 -0.665708
v 0.358947 2.969097 0.665707
v 1.861430 1.618033 -0.665708
v 1.861000 1.618243 0.665708
v 2.241683 2.800347 -0.665709
v 2.241119 2.800766 0.665707
v 2.337502 0.785009 -0.665708
v 2.326138 0.780427 0.665708
v 3.346254 1.576149 -0.665709
v 3.348081 1.588268 0.665706
vn 0.007100 -1.000000 0.000000
vn 0.999700 0.025300 -0.000000
vn -0.000000 0.000000 1.000000
vn -1.000000 0.005500 0.000000
vn 0.000000 0.000000 -1.000000
vn 0.617100 -0.786900 0.006300
vn 0.620100 -0.784500 0.002600
vn -0.868200 -0.496200 -0.009100
vn 0.738500 0.674200 0.000100
vn -0.874300 -0.485400 -0.000200
vn 0.742400 0.669900 -0.007100
vn 0.089100 0.996000 -0.000000
vn -0.557600 -0.830100 -0.000000
vn 0.089300 0.996000 -0.000300
vn -0.557700 -0.830000 0.000000
vn -0.788900 0.614600 0.000000
vn 0.659600 -0.751700 0.000000
vn -0.788900 0.614500 -0.000000
vn 0.659500 -0.751700 -0.000000
usemtl Material
s off
f 2//1 3//1 4//1
f 5//2 6//2 2//2
f 6//3 7//3 3//3
f 3//4 7//4 8//4
f 5//5 1//5 4//5
f 17//6 19//6 20//6
f 1//1 2//1 4//1
f 1//2 5//2 2//2
f 2//3 6//3 3//3
f 4//4 3//4 8//4
f 8//5 5//5 4//5
f 18//7 17//7 20//7
usemtl Material.001
f 14//3 18//3 20//3
f 13//8 17//8 18//8
f 15//9 16//9 20//9
f 13//5 15//5 19//5
f 16//3 14//3 20//3
f 14//10 13//10 18//10
f 19//11 15//11 20//11
f 17//5 13//5 19//5
usemtl Material.002
f 11//12 12//12 16//12
f 9//5 11//5 15//5
f 10//3 14//3 16//3
f 9//13 13//13 14//13
f 15//14 11//14 16//14
f 13//5 9//5 15//5
f 12//3 10//3 16//3
f 10//15 9//15 14//15
usemtl Material.003
f 7//16 12//16 11//16
f 5//5 8//5 11//5
f 6//3 10//3 12//3
f 6//17 5//17 9//17
f 8//18 7//18 11//18
f 9//5 5//5 11//5
f 7//3 6//3 12//3
f 10//19 6//19 9//19
