# Blender v2.76 (sub 0) OBJ File: '3DAnimation.blend'
# www.blender.org
mtllib Animation_000013.mtl
o Cube
v 0.666184 0.293762 -0.665708
v 0.666184 0.293762 0.665708
v -0.665209 0.285946 0.665708
v -0.665209 0.285946 -0.665708
v 0.642092 1.586465 -0.665707
v 0.642106 1.586503 0.665708
v -0.661888 1.657807 0.665708
v -0.661898 1.657768 -0.665708
v 1.148227 2.232414 -0.665707
v 1.148257 2.232442 0.665708
v 0.168856 3.021277 -0.665708
v 0.168908 3.021301 0.665707
v 1.983366 2.087471 -0.665708
v 1.982950 2.087489 0.665708
v 1.950837 3.356192 -0.665708
v 1.950284 3.356350 0.665707
v 2.814099 1.542939 -0.665708
v 2.806924 1.535826 0.665708
v 3.393661 2.702533 -0.665709
v 3.391179 2.712329 0.665707
vn 0.005900 -1.000000 0.000000
vn 0.999800 0.018600 -0.000000
vn -0.000000 0.000000 1.000000
vn -1.000000 0.002400 0.000000
vn 0.000000 0.000000 -1.000000
vn 0.894500 -0.447100 0.005000
vn 0.895600 -0.444800 0.002500
vn -0.548200 -0.836300 -0.007400
vn 0.408100 0.913000 0.000100
vn -0.556300 -0.831000 -0.000200
vn 0.412700 0.910900 -0.005900
vn -0.184800 0.982800 -0.000000
vn -0.171000 -0.985300 -0.000000
vn -0.184700 0.982800 -0.000200
vn -0.171100 -0.985300 0.000000
vn -0.854000 0.520300 0.000000
vn 0.787100 -0.616800 0.000000
usemtl Material
s off
f 2//1 3//1 4//1
f 5//2 6//2 2//2
f 6//3 7//3 3//3
f 3//4 7//4 8//4
f 5//5 1//5 4//5
f 17//6 19//6 20//6
f 1//1 2//1 4//1
f 1//2 5//2 2//2
f 2//3 6//3 3//3
f 4//4 3//4 8//4
f 8//5 5//5 4//5
f 18//7 17//7 20//7
usemtl Material.001
f 14//3 18//3 20//3
f 13//8 17//8 18//8
f 15//9 16//9 20//9
f 13//5 15//5 19//5
f 16//3 14//3 20//3
f 14//10 13//10 18//10
f 19//11 15//11 20//11
f 17//5 13//5 19//5
usemtl Material.002
f 11//12 12//12 16//12
f 9//5 11//5 15//5
f 10//3 14//3 16//3
f 9//13 13//13 14//13
f 15//14 11//14 16//14
f 13//5 9//5 15//5
f 12//3 10//3 16//3
f 10//15 9//15 14//15
usemtl Material.003
f 7//16 12//16 11//16
f 5//5 8//5 11//5
f 6//3 10//3 12//3
f 6//17 5//17 9//17
f 8//16 7//16 11//16
f 9//5 5//5 11//5
f 7//3 6//3 12//3
f 10//17 6//17 9//17
