# Blender v2.76 (sub 0) OBJ File: '3DAnimation.blend'
# www.blender.org
mtllib Animation_000069.mtl
o Cube
v 0.668334 0.314660 -0.665708
v 0.668334 0.314660 0.665708
v -0.662161 0.265159 0.665708
v -0.662161 0.265159 -0.665708
v 0.610405 1.678436 -0.665707
v 0.610413 1.678403 0.665708
v -0.699002 1.563743 0.665708
v -0.699014 1.563774 -0.665708
v -0.114876 3.037048 -0.665707
v -0.114837 3.037023 0.665708
v -1.178073 2.319777 -0.665708
v -1.178052 2.319749 0.665708
v -1.707852 3.700796 -0.665708
v -1.708306 3.700798 0.665708
v -2.071810 2.462106 -0.665708
v -2.072146 2.462202 0.665707
v -3.214496 3.573544 -0.665708
v -3.218824 3.566749 0.665707
v -3.079658 2.258852 -0.665708
v -3.083312 2.266031 0.665707
vn 0.037200 -0.999300 -0.000000
vn 0.999100 0.042400 -0.000000
vn -0.000000 -0.000000 1.000000
vn -0.999600 -0.028400 0.000000
vn 0.000000 0.000000 -1.000000
vn -0.994800 -0.102000 -0.002200
vn -0.994600 -0.103600 -0.003800
vn -0.084200 0.996500 -0.000000
vn 0.190500 -0.981700 0.005800
vn -0.088400 0.996100 0.004800
vn 0.197700 -0.980300 0.000100
vn -0.157300 -0.987500 0.000000
vn 0.384600 0.923100 0.000000
vn -0.157300 -0.987600 -0.000000
vn 0.384500 0.923100 0.000100
vn -0.844700 -0.535200 -0.000000
vn 0.882200 0.470900 -0.000000
vn -0.844700 -0.535300 0.000000
usemtl Material
s off
f 2//1 3//1 4//1
f 1//2 5//2 6//2
f 2//3 6//3 7//3
f 7//4 8//4 4//4
f 1//5 4//5 8//5
f 17//6 19//6 20//6
f 1//1 2//1 4//1
f 2//2 1//2 6//2
f 3//3 2//3 7//3
f 3//4 7//4 4//4
f 5//5 1//5 8//5
f 18//7 17//7 20//7
usemtl Material.001
f 16//3 14//3 18//3
f 14//8 13//8 17//8
f 16//9 20//9 19//9
f 15//5 19//5 17//5
f 20//3 16//3 18//3
f 18//10 14//10 17//10
f 15//11 16//11 19//11
f 13//5 15//5 17//5
usemtl Material.002
f 12//12 16//12 15//12
f 11//5 15//5 13//5
f 12//3 10//3 14//3
f 10//13 9//13 13//13
f 11//14 12//14 15//14
f 9//5 11//5 13//5
f 16//3 12//3 14//3
f 14//15 10//15 13//15
usemtl Material.003
f 8//16 7//16 12//16
f 8//5 11//5 9//5
f 7//3 6//3 10//3
f 5//17 9//17 10//17
f 11//18 8//18 12//18
f 5//5 8//5 9//5
f 12//3 7//3 10//3
f 6//17 5//17 10//17
