# Blender v2.76 (sub 0) OBJ File: '3DAnimation.blend'
# www.blender.org
mtllib Animation_000005.mtl
o Cube
v 0.665775 0.290395 -0.665708
v 0.665775 0.290395 0.665708
v -0.665640 0.289309 0.665708
v -0.665640 0.289309 -0.665708
v 0.664060 1.616091 -0.665707
v 0.664060 1.616097 0.665708
v -0.666841 1.626477 0.665708
v -0.666841 1.626472 -0.665708
v 0.757571 2.792830 -0.665707
v 0.757569 2.792838 0.665708
v -0.566906 2.914419 -0.665708
v -0.566904 2.914426 0.665708
v 1.005623 3.978309 -0.665707
v 1.005617 3.978240 0.665708
v -0.296929 4.248357 -0.665708
v -0.296956 4.248291 0.665707
v 1.334877 5.126089 -0.665708
v 1.335881 5.125127 0.665708
v 0.053685 5.482008 -0.665708
v 0.052345 5.481632 0.665707
vn 0.000800 -1.000000 0.000000
vn 1.000000 0.001300 0.000000
vn -0.000000 0.000000 1.000000
vn -1.000000 -0.000900 -0.000000
vn 0.000000 0.000000 -1.000000
vn 0.267700 0.963500 0.000500
vn 0.267600 0.963500 0.000500
vn 0.961200 -0.275700 -0.000900
vn -0.962200 0.272500 -0.000000
vn 0.961000 -0.276700 -0.000000
vn -0.961900 0.273400 -0.000900
vn -0.980100 0.198400 0.000000
vn 0.978800 -0.204800 -0.000000
vn -0.997000 0.077400 0.000000
vn 0.996900 -0.079200 0.000000
usemtl Material
s off
f 2//1 3//1 4//1
f 5//2 6//2 2//2
f 6//3 7//3 3//3
f 3//4 7//4 8//4
f 5//5 1//5 4//5
f 17//6 19//6 20//6
f 1//1 2//1 4//1
f 1//2 5//2 2//2
f 2//3 6//3 3//3
f 4//4 3//4 8//4
f 8//5 5//5 4//5
f 18//7 17//7 20//7
usemtl Material.001
f 14//3 18//3 20//3
f 13//8 17//8 18//8
f 15//9 16//9 20//9
f 13//5 15//5 19//5
f 16//3 14//3 20//3
f 14//10 13//10 18//10
f 19//11 15//11 20//11
f 17//5 13//5 19//5
usemtl Material.002
f 11//12 12//12 16//12
f 9//5 11//5 15//5
f 10//3 14//3 16//3
f 9//13 13//13 14//13
f 15//12 11//12 16//12
f 13//5 9//5 15//5
f 12//3 10//3 16//3
f 10//13 9//13 14//13
usemtl Material.003
f 7//14 12//14 11//14
f 5//5 8//5 11//5
f 6//3 10//3 12//3
f 6//15 5//15 9//15
f 8//14 7//14 11//14
f 9//5 5//5 11//5
f 7//3 6//3 12//3
f 10//15 6//15 9//15
