# Blender v2.76 (sub 0) OBJ File: '3DAnimation.blend'
# www.blender.org
mtllib Animation_000062.mtl
o Cube
v 0.670066 0.340161 -0.665708
v 0.670066 0.340161 0.665708
v -0.657578 0.240014 0.665708
v -0.657578 0.240014 -0.665708
v 0.544557 1.717701 -0.665707
v 0.544580 1.717653 0.665708
v -0.726124 1.521460 0.665708
v -0.726154 1.521505 -0.665708
v -0.678924 2.874401 -0.665707
v -0.678848 2.874400 0.665708
v -1.332431 1.864091 -0.665708
v -1.332384 1.864078 0.665708
v -2.496257 2.234686 -0.665708
v -2.496711 2.234066 0.665708
v -1.803597 1.224828 -0.665708
v -1.803956 1.224474 0.665707
v -3.170682 0.703839 -0.665708
v -3.164634 0.691959 0.665708
v -1.942468 0.289477 -0.665708
v -1.955775 0.290303 0.665707
vn 0.075200 -0.997200 -0.000000
vn 0.995900 0.090700 -0.000000
vn -0.000000 -0.000000 1.000000
vn -0.998600 -0.053400 0.000000
vn 0.000000 0.000000 -1.000000
vn -0.319700 -0.947500 -0.002600
vn -0.315300 -0.949000 -0.007000
vn -0.915100 0.403200 -0.000100
vn 0.987000 -0.160400 0.010000
vn -0.917600 0.397400 0.007700
vn 0.989200 -0.146900 0.000200
vn 0.804900 -0.593400 0.000100
vn -0.332000 0.943300 0.000000
vn 0.805000 -0.593300 -0.000000
vn -0.332200 0.943200 0.000300
vn -0.492000 -0.870600 -0.000000
vn 0.687000 0.726700 -0.000000
vn 0.687000 0.726600 0.000000
usemtl Material
s off
f 2//1 3//1 4//1
f 1//2 5//2 6//2
f 2//3 6//3 7//3
f 7//4 8//4 4//4
f 1//5 4//5 8//5
f 17//6 19//6 20//6
f 1//1 2//1 4//1
f 2//2 1//2 6//2
f 3//3 2//3 7//3
f 3//4 7//4 4//4
f 5//5 1//5 8//5
f 18//7 17//7 20//7
usemtl Material.001
f 16//3 14//3 18//3
f 14//8 13//8 17//8
f 16//9 20//9 19//9
f 15//5 19//5 17//5
f 20//3 16//3 18//3
f 18//10 14//10 17//10
f 15//11 16//11 19//11
f 13//5 15//5 17//5
usemtl Material.002
f 12//12 16//12 15//12
f 11//5 15//5 13//5
f 12//3 10//3 14//3
f 10//13 9//13 13//13
f 11//14 12//14 15//14
f 9//5 11//5 13//5
f 16//3 12//3 14//3
f 14//15 10//15 13//15
usemtl Material.003
f 8//16 7//16 12//16
f 8//5 11//5 9//5
f 7//3 6//3 10//3
f 5//17 9//17 10//17
f 11//16 8//16 12//16
f 5//5 8//5 9//5
f 12//3 7//3 10//3
f 6//18 5//18 10//18
