# Blender v2.76 (sub 0) OBJ File: '3DAnimation.blend'
# www.blender.org
mtllib Animation_000030.mtl
o Cube
v 0.666138 0.293380 -0.665708
v 0.666138 0.293380 0.665708
v -0.665259 0.286327 0.665708
v -0.665259 0.286327 -0.665708
v 0.645425 1.589191 -0.665707
v 0.645437 1.589226 0.665708
v -0.663366 1.654778 0.665708
v -0.663374 1.654742 -0.665708
v 1.124439 2.301420 -0.665707
v 1.124462 2.301450 0.665708
v 0.084191 3.033361 -0.665708
v 0.084235 3.033387 0.665707
v 2.003667 2.334097 -0.665708
v 2.003286 2.334041 0.665708
v 1.759242 3.592319 -0.665708
v 1.758732 3.592370 0.665707
v 2.952082 1.989576 -0.665708
v 2.946991 1.982033 0.665708
v 3.270812 3.252189 -0.665709
v 3.266900 3.260406 0.665707
vn 0.005300 -1.000000 0.000000
vn 0.999900 0.016000 -0.000000
vn -0.000000 0.000000 1.000000
vn -1.000000 0.001400 0.000000
vn 0.000000 0.000000 -1.000000
vn 0.969600 -0.244800 0.004400
vn 0.970100 -0.242800 0.002300
vn -0.341400 -0.939900 -0.006600
vn 0.215000 0.976600 0.000000
vn -0.349500 -0.936900 -0.000100
vn 0.219500 0.975600 -0.005400
vn -0.316600 0.948500 -0.000000
vn 0.037100 -0.999300 -0.000000
vn -0.316500 0.948600 -0.000200
vn -0.879100 0.476700 0.000000
vn 0.829800 -0.558100 0.000000
usemtl Material
s off
f 2//1 3//1 4//1
f 5//2 6//2 2//2
f 6//3 7//3 3//3
f 3//4 7//4 8//4
f 5//5 1//5 4//5
f 17//6 19//6 20//6
f 1//1 2//1 4//1
f 1//2 5//2 2//2
f 2//3 6//3 3//3
f 4//4 3//4 8//4
f 8//5 5//5 4//5
f 18//7 17//7 20//7
usemtl Material.001
f 14//3 18//3 20//3
f 13//8 17//8 18//8
f 15//9 16//9 20//9
f 13//5 15//5 19//5
f 16//3 14//3 20//3
f 14//10 13//10 18//10
f 19//11 15//11 20//11
f 17//5 13//5 19//5
usemtl Material.002
f 11//12 12//12 16//12
f 9//5 11//5 15//5
f 10//3 14//3 16//3
f 9//13 13//13 14//13
f 15//14 11//14 16//14
f 13//5 9//5 15//5
f 12//3 10//3 16//3
f 10//13 9//13 14//13
usemtl Material.003
f 7//15 12//15 11//15
f 5//5 8//5 11//5
f 6//3 10//3 12//3
f 6//16 5//16 9//16
f 8//15 7//15 11//15
f 9//5 5//5 11//5
f 7//3 6//3 12//3
f 10//16 6//16 9//16
