# Blender v2.76 (sub 0) OBJ File: '3DAnimation.blend'
# www.blender.org
mtllib Animation_000048.mtl
o Cube
v 0.667757 0.308381 -0.665708
v 0.667757 0.308381 0.665708
v -0.663145 0.271388 0.665708
v -0.663144 0.271388 -0.665708
v 0.625189 1.667638 -0.665707
v 0.625194 1.667610 0.665708
v -0.690944 1.574893 0.665708
v -0.690952 1.574919 -0.665708
v 0.027477 3.040669 -0.665707
v 0.027506 3.040643 0.665708
v -1.112819 2.424443 -0.665708
v -1.112804 2.424415 0.665708
v -1.373646 3.941909 -0.665707
v -1.374026 3.941994 0.665708
v -1.985111 2.792866 -0.665708
v -1.985385 2.793016 0.665708
v -2.829238 4.178991 -0.665707
v -2.834281 4.174109 0.665708
v -3.030128 2.869541 -0.665708
v -3.031770 2.876363 0.665707
vn 0.027800 -0.999600 -0.000000
vn 0.999500 0.031300 -0.000000
vn -0.000000 -0.000000 1.000000
vn -0.999800 -0.021300 0.000000
vn 0.000000 0.000000 -1.000000
vn -0.988400 0.151600 -0.002000
vn -0.988600 0.150400 -0.003200
vn 0.160800 0.987000 -0.000000
vn -0.079400 -0.996800 0.005000
vn 0.157000 0.987600 0.004200
vn -0.073200 -0.997300 0.000100
vn -0.389100 -0.921200 0.000000
vn 0.541000 0.841000 0.000000
vn 0.540900 0.841100 0.000100
vn -0.895600 -0.444800 -0.000000
vn 0.916900 0.399100 -0.000000
usemtl Material
s off
f 1//1 2//1 3//1
f 1//2 5//2 6//2
f 2//3 6//3 7//3
f 7//4 8//4 4//4
f 1//5 4//5 8//5
f 17//6 19//6 20//6
f 4//1 1//1 3//1
f 2//2 1//2 6//2
f 3//3 2//3 7//3
f 3//4 7//4 4//4
f 5//5 1//5 8//5
f 18//7 17//7 20//7
usemtl Material.001
f 16//3 14//3 18//3
f 14//8 13//8 17//8
f 16//9 20//9 19//9
f 15//5 19//5 17//5
f 20//3 16//3 18//3
f 18//10 14//10 17//10
f 15//11 16//11 19//11
f 13//5 15//5 17//5
usemtl Material.002
f 12//12 16//12 15//12
f 11//5 15//5 13//5
f 12//3 10//3 14//3
f 10//13 9//13 13//13
f 11//12 12//12 15//12
f 9//5 11//5 13//5
f 16//3 12//3 14//3
f 14//14 10//14 13//14
usemtl Material.003
f 8//15 7//15 12//15
f 8//5 11//5 9//5
f 7//3 6//3 10//3
f 5//16 9//16 10//16
f 11//15 8//15 12//15
f 5//5 8//5 9//5
f 12//3 7//3 10//3
f 6//16 5//16 10//16
