# Blender v2.76 (sub 0) OBJ File: '3DAnimation.blend'
# www.blender.org
mtllib Animation_000057.mtl
o Cube
v 0.670012 0.339072 -0.665708
v 0.670012 0.339072 0.665708
v -0.657793 0.241083 0.665708
v -0.657793 0.241083 -0.665708
v 0.547289 1.716400 -0.665707
v 0.547312 1.716352 0.665708
v -0.724852 1.522979 0.665708
v -0.724882 1.523023 -0.665708
v -0.662257 2.882821 -0.665707
v -0.662181 2.882818 0.665708
v -1.329632 1.878338 -0.665708
v -1.329586 1.878324 0.665708
v -2.489209 2.283980 -0.665707
v -2.489676 2.283380 0.665708
v -1.822692 1.254066 -0.665708
v -1.823060 1.253726 0.665707
v -3.209093 0.777985 -0.665708
v -3.203465 0.766042 0.665708
v -1.994582 0.322695 -0.665708
v -2.007727 0.323915 0.665707
vn 0.073600 -0.997300 -0.000000
vn 0.996100 0.088800 -0.000000
vn -0.000000 -0.000000 1.000000
vn -0.998600 -0.052300 0.000000
vn 0.000000 0.000000 -1.000000
vn -0.351000 -0.936400 -0.002600
vn 0.996100 0.088700 0.000000
vn -0.998600 -0.052200 -0.000000
vn -0.346800 -0.937900 -0.006900
vn -0.902200 0.431300 -0.000100
vn 0.980800 -0.194800 0.009900
vn -0.904900 0.425700 0.007600
vn 0.983400 -0.181500 0.000200
vn 0.784700 -0.619900 0.000100
vn -0.311500 0.950300 0.000000
vn 0.784800 -0.619800 -0.000000
vn -0.311700 0.950200 0.000300
vn -0.506600 -0.862200 -0.000000
vn 0.694200 0.719800 -0.000000
usemtl Material
s off
f 2//1 3//1 4//1
f 1//2 5//2 6//2
f 2//3 6//3 7//3
f 7//4 8//4 4//4
f 1//5 4//5 8//5
f 17//6 19//6 20//6
f 1//1 2//1 4//1
f 2//7 1//7 6//7
f 3//3 2//3 7//3
f 3//8 7//8 4//8
f 5//5 1//5 8//5
f 18//9 17//9 20//9
usemtl Material.001
f 16//3 14//3 18//3
f 14//10 13//10 17//10
f 16//11 20//11 19//11
f 15//5 19//5 17//5
f 20//3 16//3 18//3
f 18//12 14//12 17//12
f 15//13 16//13 19//13
f 13//5 15//5 17//5
usemtl Material.002
f 12//14 16//14 15//14
f 11//5 15//5 13//5
f 12//3 10//3 14//3
f 10//15 9//15 13//15
f 11//16 12//16 15//16
f 9//5 11//5 13//5
f 16//3 12//3 14//3
f 14//17 10//17 13//17
usemtl Material.003
f 8//18 7//18 12//18
f 8//5 11//5 9//5
f 7//3 6//3 10//3
f 5//19 9//19 10//19
f 11//18 8//18 12//18
f 5//5 8//5 9//5
f 12//3 7//3 10//3
f 6//19 5//19 10//19
