# Blender v2.76 (sub 0) OBJ File: '3DAnimation.blend'
# www.blender.org
mtllib Animation_000012.mtl
o Cube
v 0.666131 0.293317 -0.665708
v 0.666131 0.293317 0.665708
v -0.665267 0.286390 0.665708
v -0.665267 0.286390 -0.665708
v 0.646055 1.589787 -0.665707
v 0.646067 1.589820 0.665708
v -0.663673 1.654122 0.665708
v -0.663681 1.654087 -0.665708
v 1.117630 2.315347 -0.665708
v 1.117654 2.315377 0.665708
v 0.067982 3.035372 -0.665708
v 0.068026 3.035398 0.665707
v 1.994717 2.358723 -0.665708
v 1.994342 2.358660 0.665708
v 1.734491 3.614099 -0.665708
v 1.733986 3.614143 0.665707
v 2.952599 2.030814 -0.665708
v 2.947694 2.023300 0.665708
v 3.248897 3.299596 -0.665709
v 3.244916 3.307639 0.665707
vn 0.005200 -1.000000 -0.000000
vn 0.999900 0.015500 -0.000000
vn -0.000000 0.000000 1.000000
vn -1.000000 0.001200 0.000000
vn 0.000000 0.000000 -1.000000
vn 0.973800 -0.227400 0.004300
vn 0.974200 -0.225500 0.002300
vn -0.323900 -0.946100 -0.006500
vn 0.198800 0.980000 0.000000
vn -0.331800 -0.943300 -0.000100
vn 0.203300 0.979100 -0.005300
vn -0.328200 0.944600 -0.000000
vn 0.049400 -0.998800 -0.000000
vn -0.328100 0.944700 -0.000200
vn 0.049300 -0.998800 0.000000
vn -0.883700 0.468100 0.000000
vn 0.838500 -0.545000 0.000000
usemtl Material
s off
f 2//1 3//1 4//1
f 5//2 6//2 2//2
f 6//3 7//3 3//3
f 3//4 7//4 8//4
f 5//5 1//5 4//5
f 17//6 19//6 20//6
f 1//1 2//1 4//1
f 1//2 5//2 2//2
f 2//3 6//3 3//3
f 4//4 3//4 8//4
f 8//5 5//5 4//5
f 18//7 17//7 20//7
usemtl Material.001
f 14//3 18//3 20//3
f 13//8 17//8 18//8
f 15//9 16//9 20//9
f 13//5 15//5 19//5
f 16//3 14//3 20//3
f 14//10 13//10 18//10
f 19//11 15//11 20//11
f 17//5 13//5 19//5
usemtl Material.002
f 11//12 12//12 16//12
f 9//5 11//5 15//5
f 10//3 14//3 16//3
f 9//13 13//13 14//13
f 15//14 11//14 16//14
f 13//5 9//5 15//5
f 12//3 10//3 16//3
f 10//15 9//15 14//15
usemtl Material.003
f 7//16 12//16 11//16
f 5//5 8//5 11//5
f 6//3 10//3 12//3
f 6//17 5//17 9//17
f 8//16 7//16 11//16
f 9//5 5//5 11//5
f 7//3 6//3 12//3
f 10//17 6//17 9//17
