# Blender v2.76 (sub 0) OBJ File: '3DAnimation.blend'
# www.blender.org
mtllib Animation_000011.mtl
o Cube
v 0.666075 0.292849 -0.665708
v 0.666075 0.292849 0.665708
v -0.665327 0.286857 0.665708
v -0.665327 0.286857 -0.665708
v 0.649922 1.593551 -0.665707
v 0.649931 1.593581 0.665708
v -0.665214 1.650015 0.665708
v -0.665220 1.649985 -0.665708
v 1.078220 2.401348 -0.665708
v 1.078238 2.401377 0.665708
v -0.039279 3.040556 -0.665708
v -0.039243 3.040583 0.665707
v 1.960072 2.654201 -0.665708
v 1.959758 2.654073 0.665708
v 1.463928 3.849651 -0.665708
v 1.463496 3.849601 0.665707
v 2.992735 2.587413 -0.665708
v 2.990040 2.580126 0.665708
v 2.968772 3.896355 -0.665709
v 2.963864 3.902380 0.665707
vn 0.004500 -1.000000 -0.000000
vn 0.999900 0.012400 -0.000000
vn -0.000000 0.000000 1.000000
vn -1.000000 0.000100 0.000000
vn 0.000000 0.000000 -1.000000
vn 0.999800 0.018300 0.003600
vn 0.999800 0.019800 0.002100
vn -0.064500 -0.997900 -0.005600
vn -0.035200 0.999400 0.000000
vn -0.071600 -0.997400 -0.000100
vn -0.031000 0.999500 -0.004600
vn -0.474000 0.880500 -0.000000
vn 0.275600 -0.961300 -0.000000
vn -0.474000 0.880600 -0.000100
vn -0.911900 0.410500 0.000000
vn 0.883500 -0.468400 0.000000
usemtl Material
s off
f 2//1 3//1 4//1
f 5//2 6//2 2//2
f 6//3 7//3 3//3
f 3//4 7//4 8//4
f 5//5 1//5 4//5
f 17//6 19//6 20//6
f 1//1 2//1 4//1
f 1//2 5//2 2//2
f 2//3 6//3 3//3
f 4//4 3//4 8//4
f 8//5 5//5 4//5
f 18//7 17//7 20//7
usemtl Material.001
f 14//3 18//3 20//3
f 13//8 17//8 18//8
f 15//9 16//9 20//9
f 13//5 15//5 19//5
f 16//3 14//3 20//3
f 14//10 13//10 18//10
f 19//11 15//11 20//11
f 17//5 13//5 19//5
usemtl Material.002
f 11//12 12//12 16//12
f 9//5 11//5 15//5
f 10//3 14//3 16//3
f 9//13 13//13 14//13
f 15//14 11//14 16//14
f 13//5 9//5 15//5
f 12//3 10//3 16//3
f 10//13 9//13 14//13
usemtl Material.003
f 7//15 12//15 11//15
f 5//5 8//5 11//5
f 6//3 10//3 12//3
f 6//16 5//16 9//16
f 8//15 7//15 11//15
f 9//5 5//5 11//5
f 7//3 6//3 12//3
f 10//16 6//16 9//16
