# Blender v2.76 (sub 0) OBJ File: '3DAnimation.blend'
# www.blender.org
mtllib Animation_000060.mtl
o Cube
v 0.670134 0.341589 -0.665708
v 0.670134 0.341589 0.665708
v -0.657294 0.238613 0.665708
v -0.657293 0.238613 -0.665708
v 0.540672 1.719598 -0.665707
v 0.540696 1.719550 0.665708
v -0.727466 1.519308 0.665708
v -0.727497 1.519353 -0.665708
v -0.707037 2.859062 -0.665707
v -0.706959 2.859062 0.665708
v -1.335930 1.839094 -0.665708
v -1.335883 1.839083 0.665708
v -2.504942 2.147179 -0.665708
v -2.505374 2.146523 0.665708
v -1.767241 1.175009 -0.665708
v -1.767584 1.174631 0.665707
v -3.093939 0.573847 -0.665708
v -3.087095 0.562078 0.665708
v -1.844256 0.236447 -0.665708
v -1.857870 0.236531 0.665707
vn 0.077300 -0.997000 -0.000000
vn 0.995600 0.093500 -0.000000
vn -0.000000 -0.000000 1.000000
vn -0.998500 -0.054700 0.000000
vn 0.000000 0.000000 -1.000000
vn -0.260700 -0.965400 -0.002600
vn -0.256000 -0.966600 -0.007200
vn -0.936500 0.350600 -0.000100
vn 0.995300 -0.095800 0.010200
vn -0.938700 0.344600 0.007900
vn 0.996700 -0.081800 0.000200
vn 0.838600 -0.544800 0.000100
vn -0.368100 0.929800 0.000000
vn 0.838600 -0.544700 -0.000000
vn -0.368300 0.929700 0.000300
vn -0.465200 -0.885200 -0.000000
vn 0.674400 0.738400 -0.000000
usemtl Material
s off
f 2//1 3//1 4//1
f 1//2 5//2 6//2
f 2//3 6//3 7//3
f 7//4 8//4 4//4
f 1//5 4//5 8//5
f 17//6 19//6 20//6
f 1//1 2//1 4//1
f 2//2 1//2 6//2
f 3//3 2//3 7//3
f 3//4 7//4 4//4
f 5//5 1//5 8//5
f 18//7 17//7 20//7
usemtl Material.001
f 16//3 14//3 18//3
f 14//8 13//8 17//8
f 16//9 20//9 19//9
f 15//5 19//5 17//5
f 20//3 16//3 18//3
f 18//10 14//10 17//10
f 15//11 16//11 19//11
f 13//5 15//5 17//5
usemtl Material.002
f 12//12 16//12 15//12
f 11//5 15//5 13//5
f 12//3 10//3 14//3
f 10//13 9//13 13//13
f 11//14 12//14 15//14
f 9//5 11//5 13//5
f 16//3 12//3 14//3
f 14//15 10//15 13//15
usemtl Material.003
f 8//16 7//16 12//16
f 8//5 11//5 9//5
f 7//3 6//3 10//3
f 5//17 9//17 10//17
f 11//16 8//16 12//16
f 5//5 8//5 9//5
f 12//3 7//3 10//3
f 6//17 5//17 10//17
