# Blender v2.76 (sub 0) OBJ File: '3DAnimation.blend'
# www.blender.org
mtllib Animation_000074.mtl
o Cube
v 0.665727 0.290008 -0.665708
v 0.665727 0.290008 0.665708
v -0.665689 0.289697 0.665708
v -0.665688 0.289697 -0.665708
v 0.665062 1.633316 -0.665707
v 0.665061 1.633304 0.665708
v -0.664109 1.609366 0.665708
v -0.664111 1.609377 -0.665708
v 0.449623 2.964695 -0.665707
v 0.449629 2.964682 0.665708
v -0.852124 2.713426 -0.665708
v -0.852124 2.713413 0.665708
v -0.113264 4.287588 -0.665708
v -0.113349 4.287705 0.665708
v -1.326400 3.750038 -0.665708
v -1.326440 3.750164 0.665707
v -0.811701 5.415436 -0.665708
v -0.814417 5.415495 0.665707
v -1.948959 4.722221 -0.665709
v -1.947529 4.724531 0.665707
vn 0.000200 -1.000000 -0.000000
vn 1.000000 0.000500 0.000000
vn -0.000000 -0.000000 1.000000
vn -1.000000 0.001200 0.000000
vn 0.000000 0.000000 -1.000000
vn -0.520500 0.853900 -0.000900
vn -0.520600 0.853800 -0.001100
vn 0.850200 0.526500 0.000000
vn -0.843300 -0.537500 0.001800
vn 0.849300 0.527900 0.001700
vn -0.842100 -0.539300 0.000000
vn -0.909400 -0.416000 0.000000
vn 0.920200 0.391500 -0.000000
vn -0.909300 -0.416000 -0.000000
vn -0.985800 -0.167900 -0.000000
vn 0.987200 0.159700 -0.000000
usemtl Material
s off
f 2//1 3//1 4//1
f 1//2 5//2 6//2
f 2//3 6//3 7//3
f 7//4 8//4 4//4
f 1//5 4//5 8//5
f 17//6 19//6 20//6
f 1//1 2//1 4//1
f 2//2 1//2 6//2
f 3//3 2//3 7//3
f 3//4 7//4 4//4
f 5//5 1//5 8//5
f 18//7 17//7 20//7
usemtl Material.001
f 16//3 14//3 18//3
f 14//8 13//8 17//8
f 16//9 20//9 19//9
f 15//5 19//5 17//5
f 20//3 16//3 18//3
f 18//10 14//10 17//10
f 15//11 16//11 19//11
f 13//5 15//5 17//5
usemtl Material.002
f 12//12 16//12 15//12
f 11//5 15//5 13//5
f 12//3 10//3 14//3
f 10//13 9//13 13//13
f 11//14 12//14 15//14
f 9//5 11//5 13//5
f 16//3 12//3 14//3
f 14//13 10//13 13//13
usemtl Material.003
f 8//15 7//15 12//15
f 8//5 11//5 9//5
f 7//3 6//3 10//3
f 5//16 9//16 10//16
f 11//15 8//15 12//15
f 5//5 8//5 9//5
f 12//3 7//3 10//3
f 6//16 5//16 10//16
