# Blender v2.76 (sub 0) OBJ File: '3DAnimation.blend'
# www.blender.org
mtllib Animation_000017.mtl
o Cube
v 0.666337 0.295066 -0.665708
v 0.666337 0.295066 0.665708
v -0.665038 0.284644 0.665708
v -0.665037 0.284644 -0.665708
v 0.629164 1.578402 -0.665707
v 0.629189 1.578448 0.665708
v -0.655144 1.667114 0.665708
v -0.655163 1.667064 -0.665708
v 1.201270 1.989092 -0.665707
v 1.201316 1.989110 0.665708
v 0.448227 2.931838 -0.665708
v 0.448302 2.931848 0.665707
v 1.745817 1.410399 -0.665708
v 1.745421 1.410712 0.665708
v 2.320625 2.493220 -0.665709
v 2.320106 2.493782 0.665707
v 2.003400 0.501001 -0.665708
v 1.990291 0.498667 0.665708
v 3.158517 1.038296 -0.665709
v 3.163167 1.050776 0.665707
vn 0.007800 -1.000000 0.000000
vn 0.999600 0.028900 -0.000000
vn -0.000000 0.000000 1.000000
vn -1.000000 0.007200 0.000000
vn 0.000000 0.000000 -1.000000
vn 0.421700 -0.906700 0.007000
vn 0.999600 0.029000 0.000000
vn -1.000000 0.007100 -0.000000
vn 0.425900 -0.904800 0.002600
vn -0.962100 -0.272500 -0.010000
vn 0.863400 0.504500 0.000100
vn -0.965800 -0.259300 -0.000200
vn 0.866500 0.499000 -0.007700
vn 0.227900 0.973700 -0.000000
vn -0.728300 -0.685300 -0.000100
vn 0.228100 0.973600 -0.000300
vn -0.728400 -0.685200 0.000000
vn -0.753500 0.657400 0.000000
vn 0.583200 -0.812400 0.000000
vn 0.583100 -0.812400 -0.000000
usemtl Material
s off
f 2//1 3//1 4//1
f 5//2 6//2 2//2
f 6//3 7//3 3//3
f 3//4 7//4 8//4
f 5//5 1//5 4//5
f 17//6 19//6 20//6
f 1//1 2//1 4//1
f 1//7 5//7 2//7
f 2//3 6//3 3//3
f 4//8 3//8 8//8
f 8//5 5//5 4//5
f 18//9 17//9 20//9
usemtl Material.001
f 14//3 18//3 20//3
f 13//10 17//10 18//10
f 15//11 16//11 20//11
f 13//5 15//5 19//5
f 16//3 14//3 20//3
f 14//12 13//12 18//12
f 19//13 15//13 20//13
f 17//5 13//5 19//5
usemtl Material.002
f 11//14 12//14 16//14
f 9//5 11//5 15//5
f 10//3 14//3 16//3
f 9//15 13//15 14//15
f 15//16 11//16 16//16
f 13//5 9//5 15//5
f 12//3 10//3 16//3
f 10//17 9//17 14//17
usemtl Material.003
f 7//18 12//18 11//18
f 5//5 8//5 11//5
f 6//3 10//3 12//3
f 6//19 5//19 9//19
f 8//18 7//18 11//18
f 9//5 5//5 11//5
f 7//3 6//3 12//3
f 10//20 6//20 9//20
