# Blender v2.76 (sub 0) OBJ File: '3DAnimation.blend'
# www.blender.org
mtllib Animation_000058.mtl
o Cube
v 0.670081 0.340474 -0.665708
v 0.670081 0.340474 0.665708
v -0.657516 0.239707 0.665708
v -0.657516 0.239707 -0.665708
v 0.543604 1.718196 -0.665707
v 0.543628 1.718148 0.665708
v -0.726305 1.520924 0.665708
v -0.726336 1.520969 -0.665708
v -0.687466 2.869683 -0.665707
v -0.687389 2.869682 0.665708
v -1.333293 1.856319 -0.665708
v -1.333246 1.856307 0.665708
v -2.499093 2.207204 -0.665707
v -2.499541 2.206572 0.665708
v -1.792059 1.209050 -0.665708
v -1.792413 1.208688 0.665707
v -3.146347 0.661985 -0.665708
v -3.140038 0.650125 0.665708
v -1.910701 0.272469 -0.665708
v -1.924120 0.273061 0.665707
vn 0.075700 -0.997100 -0.000000
vn 0.995800 0.091400 -0.000000
vn -0.000000 -0.000000 1.000000
vn -0.998600 -0.053600 0.000000
vn 0.000000 0.000000 -1.000000
vn -0.300600 -0.953700 -0.002600
vn -0.296200 -0.955100 -0.007100
vn -0.922400 0.386400 -0.000100
vn 0.990200 -0.139400 0.010000
vn -0.924700 0.380500 0.007800
vn 0.992100 -0.125700 0.000200
vn 0.815800 -0.578400 0.000100
vn -0.343400 0.939200 0.000000
vn 0.815900 -0.578300 -0.000000
vn -0.343600 0.939100 0.000300
vn -0.483700 -0.875300 -0.000000
vn 0.683100 0.730300 -0.000000
vn -0.483600 -0.875300 0.000000
usemtl Material
s off
f 2//1 3//1 4//1
f 1//2 5//2 6//2
f 2//3 6//3 7//3
f 7//4 8//4 4//4
f 1//5 4//5 8//5
f 17//6 19//6 20//6
f 1//1 2//1 4//1
f 2//2 1//2 6//2
f 3//3 2//3 7//3
f 3//4 7//4 4//4
f 5//5 1//5 8//5
f 18//7 17//7 20//7
usemtl Material.001
f 16//3 14//3 18//3
f 14//8 13//8 17//8
f 16//9 20//9 19//9
f 15//5 19//5 17//5
f 20//3 16//3 18//3
f 18//10 14//10 17//10
f 15//11 16//11 19//11
f 13//5 15//5 17//5
usemtl Material.002
f 12//12 16//12 15//12
f 11//5 15//5 13//5
f 12//3 10//3 14//3
f 10//13 9//13 13//13
f 11//14 12//14 15//14
f 9//5 11//5 13//5
f 16//3 12//3 14//3
f 14//15 10//15 13//15
usemtl Material.003
f 8//16 7//16 12//16
f 8//5 11//5 9//5
f 7//3 6//3 10//3
f 5//17 9//17 10//17
f 11//18 8//18 12//18
f 5//5 8//5 9//5
f 12//3 7//3 10//3
f 6//17 5//17 10//17
