# Blender v2.76 (sub 0) OBJ File: '3DAnimation.blend'
# www.blender.org
mtllib Animation_000073.mtl
o Cube
v 0.666251 0.294334 -0.665708
v 0.666251 0.294333 0.665708
v -0.665134 0.285375 0.665708
v -0.665134 0.285375 -0.665708
v 0.656218 1.641530 -0.665707
v 0.656219 1.641515 0.665708
v -0.670982 1.601221 0.665708
v -0.670985 1.601236 -0.665708
v 0.355368 2.993145 -0.665707
v 0.355378 2.993127 0.665708
v -0.921133 2.652185 -0.665708
v -0.921130 2.652167 0.665708
v -0.412927 4.270714 -0.665708
v -0.413067 4.270853 0.665708
v -1.528970 3.559901 -0.665708
v -1.529050 3.560056 0.665707
v -1.338274 5.265920 -0.665708
v -1.341886 5.265351 0.665707
v -2.318938 4.365773 -0.665709
v -2.317594 4.369173 0.665707
vn 0.006700 -1.000000 -0.000000
vn 1.000000 0.007400 -0.000000
vn -0.000000 -0.000000 1.000000
vn -1.000000 -0.004400 0.000000
vn 0.000000 0.000000 -1.000000
vn -0.676200 0.736700 -0.001200
vn -0.676500 0.736500 -0.001500
vn 0.732300 0.680900 0.000000
vn -0.716200 -0.697900 0.002500
vn 0.730800 0.682600 0.002300
vn -0.714100 -0.700000 0.000000
vn -0.830900 -0.556400 0.000000
vn 0.857000 0.515400 0.000000
vn -0.972800 -0.231600 -0.000000
vn 0.976100 0.217300 -0.000000
usemtl Material
s off
f 2//1 3//1 4//1
f 1//2 5//2 6//2
f 2//3 6//3 7//3
f 7//4 8//4 4//4
f 1//5 4//5 8//5
f 17//6 19//6 20//6
f 1//1 2//1 4//1
f 2//2 1//2 6//2
f 3//3 2//3 7//3
f 3//4 7//4 4//4
f 5//5 1//5 8//5
f 18//7 17//7 20//7
usemtl Material.001
f 16//3 14//3 18//3
f 14//8 13//8 17//8
f 16//9 20//9 19//9
f 15//5 19//5 17//5
f 20//3 16//3 18//3
f 18//10 14//10 17//10
f 15//11 16//11 19//11
f 13//5 15//5 17//5
usemtl Material.002
f 12//12 16//12 15//12
f 11//5 15//5 13//5
f 12//3 10//3 14//3
f 10//13 9//13 13//13
f 11//12 12//12 15//12
f 9//5 11//5 13//5
f 16//3 12//3 14//3
f 14//13 10//13 13//13
usemtl Material.003
f 8//14 7//14 12//14
f 8//5 11//5 9//5
f 7//3 6//3 10//3
f 5//15 9//15 10//15
f 11//14 8//14 12//14
f 5//5 8//5 9//5
f 12//3 7//3 10//3
f 6//15 5//15 10//15
