# Blender v2.76 (sub 0) OBJ File: '3DAnimation.blend'
# www.blender.org
mtllib Animation_000038.mtl
o Cube
v 0.665908 0.291477 -0.665708
v 0.665908 0.291477 0.665708
v -0.665503 0.288229 0.665708
v -0.665503 0.288229 -0.665708
v 0.661830 1.615896 -0.665707
v 0.661830 1.615903 0.665708
v -0.668832 1.626680 0.665708
v -0.668832 1.626673 -0.665708
v 0.773986 2.779395 -0.665707
v 0.773984 2.779402 0.665708
v -0.547819 2.923849 -0.665708
v -0.547816 2.923857 0.665708
v 1.052986 3.953166 -0.665707
v 1.052978 3.953093 0.665708
v -0.242205 4.255932 -0.665708
v -0.242236 4.255861 0.665708
v 1.415962 5.087721 -0.665708
v 1.417008 5.086661 0.665708
v 0.146072 5.481541 -0.665708
v 0.144627 5.481178 0.665707
vn 0.002400 -1.000000 -0.000000
vn 1.000000 0.003100 -0.000000
vn -0.000000 0.000000 1.000000
vn -1.000000 -0.002500 -0.000000
vn 0.000000 0.000000 -1.000000
vn 0.296200 0.955100 0.000600
vn 0.296200 0.955100 0.000500
vn 0.952400 -0.304700 -0.001000
vn -0.953600 0.301100 -0.000000
vn 0.952100 -0.305800 -0.000000
vn -0.953300 0.302000 -0.001000
vn -0.974700 0.223600 0.000000
vn 0.972900 -0.231300 -0.000000
vn -0.995700 0.092900 0.000000
vn 0.995400 -0.096000 0.000000
vn 0.995400 -0.095900 0.000000
usemtl Material
s off
f 2//1 3//1 4//1
f 5//2 6//2 2//2
f 6//3 7//3 3//3
f 3//4 7//4 8//4
f 5//5 1//5 4//5
f 17//6 19//6 20//6
f 1//1 2//1 4//1
f 1//2 5//2 2//2
f 2//3 6//3 3//3
f 4//4 3//4 8//4
f 8//5 5//5 4//5
f 18//7 17//7 20//7
usemtl Material.001
f 14//3 18//3 20//3
f 13//8 17//8 18//8
f 15//9 16//9 20//9
f 13//5 15//5 19//5
f 16//3 14//3 20//3
f 14//10 13//10 18//10
f 19//11 15//11 20//11
f 17//5 13//5 19//5
usemtl Material.002
f 11//12 12//12 16//12
f 9//5 11//5 15//5
f 10//3 14//3 16//3
f 9//13 13//13 14//13
f 15//12 11//12 16//12
f 13//5 9//5 15//5
f 12//3 10//3 16//3
f 10//13 9//13 14//13
usemtl Material.003
f 7//14 12//14 11//14
f 5//5 8//5 11//5
f 6//3 10//3 12//3
f 6//15 5//15 9//15
f 8//14 7//14 11//14
f 9//5 5//5 11//5
f 7//3 6//3 12//3
f 10//16 6//16 9//16
