# Blender v2.76 (sub 0) OBJ File: '3DAnimation.blend'
# www.blender.org
mtllib Animation_000028.mtl
o Cube
v 0.666214 0.294020 -0.665708
v 0.666214 0.294020 0.665708
v -0.665175 0.285688 0.665708
v -0.665175 0.285688 -0.665708
v 0.639285 1.584275 -0.665707
v 0.639302 1.584315 0.665708
v -0.660385 1.660271 0.665708
v -0.660397 1.660230 -0.665708
v 1.166581 2.174359 -0.665707
v 1.166614 2.174386 0.665708
v 0.236964 3.006417 -0.665708
v 0.237022 3.006439 0.665707
v 1.962706 1.923462 -0.665708
v 1.962274 1.923541 0.665708
v 2.068328 3.180082 -0.665708
v 2.067758 3.180320 0.665707
v 2.689797 1.265963 -0.665708
v 2.681172 1.259392 0.665708
v 3.428352 2.325688 -0.665709
v 3.427074 2.336457 0.665706
vn 0.006300 -1.000000 0.000000
vn 0.999800 0.020900 -0.000000
vn -0.000000 0.000000 1.000000
vn -1.000000 0.003500 0.000000
vn 0.000000 0.000000 -1.000000
vn 0.820400 -0.571800 0.005400
vn 0.822100 -0.569300 0.002500
vn -0.670700 -0.741700 -0.008000
vn 0.527400 0.849600 0.000100
vn -0.678600 -0.734500 -0.000200
vn 0.531900 0.846800 -0.006300
vn -0.094600 0.995500 -0.000000
vn -0.300600 -0.953800 -0.000000
vn -0.094400 0.995500 -0.000200
vn -0.300700 -0.953700 0.000000
vn -0.832100 0.554700 0.000000
vn 0.745700 -0.666300 0.000000
vn 0.745600 -0.666300 -0.000000
usemtl Material
s off
f 2//1 3//1 4//1
f 5//2 6//2 2//2
f 6//3 7//3 3//3
f 3//4 7//4 8//4
f 5//5 1//5 4//5
f 17//6 19//6 20//6
f 1//1 2//1 4//1
f 1//2 5//2 2//2
f 2//3 6//3 3//3
f 4//4 3//4 8//4
f 8//5 5//5 4//5
f 18//7 17//7 20//7
usemtl Material.001
f 14//3 18//3 20//3
f 13//8 17//8 18//8
f 15//9 16//9 20//9
f 13//5 15//5 19//5
f 16//3 14//3 20//3
f 14//10 13//10 18//10
f 19//11 15//11 20//11
f 17//5 13//5 19//5
usemtl Material.002
f 11//12 12//12 16//12
f 9//5 11//5 15//5
f 10//3 14//3 16//3
f 9//13 13//13 14//13
f 15//14 11//14 16//14
f 13//5 9//5 15//5
f 12//3 10//3 16//3
f 10//15 9//15 14//15
usemtl Material.003
f 7//16 12//16 11//16
f 5//5 8//5 11//5
f 6//3 10//3 12//3
f 6//17 5//17 9//17
f 8//16 7//16 11//16
f 9//5 5//5 11//5
f 7//3 6//3 12//3
f 10//18 6//18 9//18
