# Blender v2.76 (sub 0) OBJ File: '3DAnimation.blend'
# www.blender.org
mtllib Animation_000022.mtl
o Cube
v 0.666362 0.295283 -0.665708
v 0.666362 0.295283 0.665708
v -0.665009 0.284427 0.665708
v -0.665009 0.284427 -0.665708
v 0.626790 1.577273 -0.665707
v 0.626817 1.577320 0.665708
v -0.653776 1.668478 0.665708
v -0.653797 1.668428 -0.665708
v 1.205348 1.947636 -0.665707
v 1.205395 1.947652 0.665708
v 0.492864 2.909849 -0.665708
v 0.492943 2.909855 0.665707
v 1.682872 1.317741 -0.665708
v 1.682501 1.318103 0.665708
v 2.343821 2.340858 -0.665709
v 2.343335 2.341490 0.665707
v 1.829914 0.391955 -0.665708
v 1.816103 0.390908 0.665708
v 3.033849 0.795185 -0.665709
v 3.039964 0.807616 0.665707
vn 0.008200 -1.000000 -0.000000
vn 0.999500 0.030800 -0.000000
vn -0.000000 0.000000 1.000000
vn -1.000000 0.008100 0.000000
vn 0.000000 0.000000 -1.000000
vn 0.317600 -0.948200 0.007400
vn 0.999500 0.030900 0.000000
vn 0.322300 -0.946600 0.002600
vn -0.987600 -0.156900 -0.010400
vn 0.910500 0.413500 0.000100
vn -0.989800 -0.142600 -0.000200
vn 0.913100 0.407600 -0.008000
vn 0.293600 0.955900 -0.000000
vn -0.796900 -0.604100 -0.000100
vn 0.293800 0.955900 -0.000300
vn -0.797000 -0.604000 0.000000
vn -0.734600 0.678500 0.000000
vn 0.539100 -0.842200 0.000000
usemtl Material
s off
f 2//1 3//1 4//1
f 5//2 6//2 2//2
f 6//3 7//3 3//3
f 3//4 7//4 8//4
f 5//5 1//5 4//5
f 17//6 19//6 20//6
f 1//1 2//1 4//1
f 1//7 5//7 2//7
f 2//3 6//3 3//3
f 4//4 3//4 8//4
f 8//5 5//5 4//5
f 18//8 17//8 20//8
usemtl Material.001
f 14//3 18//3 20//3
f 13//9 17//9 18//9
f 15//10 16//10 20//10
f 13//5 15//5 19//5
f 16//3 14//3 20//3
f 14//11 13//11 18//11
f 19//12 15//12 20//12
f 17//5 13//5 19//5
usemtl Material.002
f 11//13 12//13 16//13
f 9//5 11//5 15//5
f 10//3 14//3 16//3
f 9//14 13//14 14//14
f 15//15 11//15 16//15
f 13//5 9//5 15//5
f 12//3 10//3 16//3
f 10//16 9//16 14//16
usemtl Material.003
f 7//17 12//17 11//17
f 5//5 8//5 11//5
f 6//3 10//3 12//3
f 6//18 5//18 9//18
f 8//17 7//17 11//17
f 9//5 5//5 11//5
f 7//3 6//3 12//3
f 10//18 6//18 9//18
