# Blender v2.76 (sub 0) OBJ File: '3DAnimation.blend'
# www.blender.org
mtllib Animation_000031.mtl
o Cube
v 0.666099 0.293055 -0.665708
v 0.666099 0.293055 0.665708
v -0.665301 0.286652 0.665708
v -0.665301 0.286652 -0.665708
v 0.648445 1.592123 -0.665707
v 0.648455 1.592154 0.665708
v -0.664727 1.651568 0.665708
v -0.664734 1.651536 -0.665708
v 1.095100 2.369346 -0.665707
v 1.095119 2.369375 0.665708
v 0.000152 3.039334 -0.665708
v 0.000190 3.039360 0.665707
v 1.983831 2.567091 -0.665708
v 1.983497 2.566980 0.665708
v 1.551588 3.784285 -0.665708
v 1.551134 3.784257 0.665707
v 3.000767 2.425744 -0.665708
v 2.997475 2.418299 0.665708
v 3.067456 3.731364 -0.665709
v 3.062716 3.737983 0.665707
vn 0.004800 -1.000000 0.000000
vn 0.999900 0.013600 -0.000000
vn -0.000000 0.000000 1.000000
vn -1.000000 0.000400 0.000000
vn 0.000000 0.000000 -1.000000
vn 0.998700 -0.051000 0.003800
vn 0.998800 -0.049400 0.002200
vn -0.137700 -0.990500 -0.005900
vn 0.030600 0.999500 0.000000
vn -0.145100 -0.989400 -0.000100
vn 0.034900 0.999400 -0.004800
vn -0.432900 0.901400 -0.000000
vn 0.217200 -0.976100 -0.000000
vn -0.432900 0.901500 -0.000100
vn 0.217100 -0.976100 0.000000
vn -0.901800 0.432100 0.000000
vn 0.867000 -0.498300 0.000000
usemtl Material
s off
f 1//1 2//1 3//1
f 5//2 6//2 2//2
f 6//3 7//3 3//3
f 3//4 7//4 8//4
f 5//5 1//5 4//5
f 17//6 19//6 20//6
f 4//1 1//1 3//1
f 1//2 5//2 2//2
f 2//3 6//3 3//3
f 4//4 3//4 8//4
f 8//5 5//5 4//5
f 18//7 17//7 20//7
usemtl Material.001
f 14//3 18//3 20//3
f 13//8 17//8 18//8
f 15//9 16//9 20//9
f 13//5 15//5 19//5
f 16//3 14//3 20//3
f 14//10 13//10 18//10
f 19//11 15//11 20//11
f 17//5 13//5 19//5
usemtl Material.002
f 11//12 12//12 16//12
f 9//5 11//5 15//5
f 10//3 14//3 16//3
f 9//13 13//13 14//13
f 15//14 11//14 16//14
f 13//5 9//5 15//5
f 12//3 10//3 16//3
f 10//15 9//15 14//15
usemtl Material.003
f 7//16 12//16 11//16
f 5//5 8//5 11//5
f 6//3 10//3 12//3
f 6//17 5//17 9//17
f 8//16 7//16 11//16
f 9//5 5//5 11//5
f 7//3 6//3 12//3
f 10//17 6//17 9//17
