# Blender v2.76 (sub 0) OBJ File: '3DAnimation.blend'
# www.blender.org
mtllib Animation_000018.mtl
o Cube
v 0.666357 0.295236 -0.665708
v 0.666357 0.295236 0.665708
v -0.665015 0.284474 0.665708
v -0.665015 0.284474 -0.665708
v 0.627367 1.577549 -0.665707
v 0.627393 1.577596 0.665708
v -0.654129 1.668143 0.665708
v -0.654150 1.668093 -0.665708
v 1.204421 1.957861 -0.665707
v 1.204467 1.957878 0.665708
v 0.482006 2.915406 -0.665708
v 0.482084 2.915413 0.665707
v 1.697883 1.339359 -0.665708
v 1.697506 1.339710 0.665708
v 2.339027 2.377184 -0.665709
v 2.338533 2.377799 0.665707
v 1.871325 0.416116 -0.665708
v 1.857672 0.414753 0.665708
v 3.065079 0.851669 -0.665709
v 3.070843 0.864124 0.665707
vn 0.008100 -1.000000 0.000000
vn 0.999500 0.030400 -0.000000
vn -0.000000 0.000000 1.000000
vn -1.000000 0.007900 0.000000
vn 0.000000 0.000000 -1.000000
vn 0.342700 -0.939400 0.007300
vn 0.347300 -0.937700 0.002600
vn -0.982800 -0.184600 -0.010300
vn 0.900200 0.435500 0.000100
vn -0.985300 -0.170600 -0.000200
vn 0.902900 0.429700 -0.007900
vn 0.278200 0.960500 -0.000000
vn -0.781700 -0.623700 -0.000100
vn 0.278400 0.960500 -0.000300
vn -0.781800 -0.623500 0.000000
vn -0.739300 0.673400 0.000000
vn 0.550300 -0.835000 0.000000
usemtl Material
s off
f 2//1 3//1 4//1
f 5//2 6//2 2//2
f 6//3 7//3 3//3
f 3//4 7//4 8//4
f 5//5 1//5 4//5
f 17//6 19//6 20//6
f 1//1 2//1 4//1
f 1//2 5//2 2//2
f 2//3 6//3 3//3
f 4//4 3//4 8//4
f 8//5 5//5 4//5
f 18//7 17//7 20//7
usemtl Material.001
f 14//3 18//3 20//3
f 13//8 17//8 18//8
f 15//9 16//9 20//9
f 13//5 15//5 19//5
f 16//3 14//3 20//3
f 14//10 13//10 18//10
f 19//11 15//11 20//11
f 17//5 13//5 19//5
usemtl Material.002
f 11//12 12//12 16//12
f 9//5 11//5 15//5
f 10//3 14//3 16//3
f 9//13 13//13 14//13
f 15//14 11//14 16//14
f 13//5 9//5 15//5
f 12//3 10//3 16//3
f 10//15 9//15 14//15
usemtl Material.003
f 7//16 12//16 11//16
f 5//5 8//5 11//5
f 6//3 10//3 12//3
f 6//17 5//17 9//17
f 8//16 7//16 11//16
f 9//5 5//5 11//5
f 7//3 6//3 12//3
f 10//17 6//17 9//17
