# Blender v2.76 (sub 0) OBJ File: '3DAnimation.blend'
# www.blender.org
mtllib Animation_000053.mtl
o Cube
v 0.669379 0.328263 -0.665708
v 0.669379 0.328263 0.665708
v -0.659835 0.251717 0.665708
v -0.659834 0.251717 -0.665708
v 0.575495 1.701370 -0.665707
v 0.575511 1.701327 0.665708
v -0.713512 1.539647 0.665708
v -0.713533 1.539687 -0.665708
v -0.449028 2.971070 -0.665707
v -0.448965 2.971054 0.665708
v -1.286534 2.057533 -0.665708
v -1.286496 2.057509 0.665708
v -2.306892 2.899268 -0.665707
v -2.307442 2.898930 0.665708
v -2.017054 1.678763 -0.665708
v -2.017479 1.678613 0.665707
v -3.520279 1.834204 -0.665708
v -3.519778 1.822934 0.665708
v -2.603246 0.901584 -0.665708
v -2.613207 0.906877 0.665707
vn 0.057500 -0.998300 -0.000000
vn 0.997700 0.068200 -0.000000
vn -0.000000 -0.000000 1.000000
vn -0.999100 -0.041700 0.000000
vn 0.000000 0.000000 -1.000000
vn -0.713000 -0.701100 -0.002500
vn -0.999100 -0.041600 -0.000000
vn -0.710800 -0.703400 -0.005700
vn -0.659700 0.751500 -0.000100
vn 0.791600 -0.611000 0.008400
vn -0.663800 0.747900 0.006600
vn 0.798400 -0.602200 0.000200
vn 0.460200 -0.887800 0.000000
vn -0.038600 0.999300 0.000000
vn 0.460300 -0.887800 -0.000000
vn -0.038800 0.999200 0.000200
vn -0.670500 -0.741900 -0.000000
vn 0.778200 0.628000 -0.000000
vn 0.778300 0.627900 0.000000
usemtl Material
s off
f 2//1 3//1 4//1
f 1//2 5//2 6//2
f 2//3 6//3 7//3
f 7//4 8//4 4//4
f 1//5 4//5 8//5
f 17//6 19//6 20//6
f 1//1 2//1 4//1
f 2//2 1//2 6//2
f 3//3 2//3 7//3
f 3//7 7//7 4//7
f 5//5 1//5 8//5
f 18//8 17//8 20//8
usemtl Material.001
f 16//3 14//3 18//3
f 14//9 13//9 17//9
f 16//10 20//10 19//10
f 15//5 19//5 17//5
f 20//3 16//3 18//3
f 18//11 14//11 17//11
f 15//12 16//12 19//12
f 13//5 15//5 17//5
usemtl Material.002
f 12//13 16//13 15//13
f 11//5 15//5 13//5
f 12//3 10//3 14//3
f 10//14 9//14 13//14
f 11//15 12//15 15//15
f 9//5 11//5 13//5
f 16//3 12//3 14//3
f 14//16 10//16 13//16
usemtl Material.003
f 8//17 7//17 12//17
f 8//5 11//5 9//5
f 7//3 6//3 10//3
f 5//18 9//18 10//18
f 11//17 8//17 12//17
f 5//5 8//5 9//5
f 12//3 7//3 10//3
f 6//19 5//19 10//19
