# Blender v2.76 (sub 0) OBJ File: '3DAnimation.blend'
# www.blender.org
mtllib Animation_000056.mtl
o Cube
v 0.669910 0.337116 -0.665708
v 0.669910 0.337116 0.665708
v -0.658175 0.243004 0.665708
v -0.658175 0.243004 -0.665708
v 0.552426 1.713835 -0.665707
v 0.552447 1.713789 0.665708
v -0.722823 1.525885 0.665708
v -0.722851 1.525929 -0.665708
v -0.626093 2.900617 -0.665707
v -0.626019 2.900611 0.665708
v -1.323843 1.909592 -0.665708
v -1.323798 1.909576 0.665708
v -2.470500 2.392868 -0.665707
v -2.470990 2.392312 0.665708
v -1.863911 1.320792 -0.665708
v -1.864295 1.320485 0.665707
v -3.289585 0.948655 -0.665708
v -3.284911 0.936661 0.665708
v -2.111128 0.402005 -0.665708
v -2.123831 0.404073 0.665707
vn 0.070700 -0.997500 -0.000000
vn 0.996400 0.085000 -0.000000
vn -0.000000 -0.000000 1.000000
vn -0.998700 -0.050300 0.000000
vn 0.000000 0.000000 -1.000000
vn -0.420800 -0.907200 -0.002600
vn -0.416900 -0.908900 -0.006700
vn -0.869800 0.493300 -0.000100
vn 0.962100 -0.272500 0.009600
vn -0.872800 0.488000 0.007500
vn 0.965700 -0.259800 0.000200
vn 0.736800 -0.676100 0.000100
vn -0.265400 0.964100 0.000000
vn 0.736900 -0.676000 -0.000000
vn -0.265600 0.964100 0.000300
vn -0.538100 -0.842900 -0.000000
vn 0.709600 0.704600 -0.000000
usemtl Material
s off
f 2//1 3//1 4//1
f 1//2 5//2 6//2
f 2//3 6//3 7//3
f 7//4 8//4 4//4
f 1//5 4//5 8//5
f 17//6 19//6 20//6
f 1//1 2//1 4//1
f 2//2 1//2 6//2
f 3//3 2//3 7//3
f 3//4 7//4 4//4
f 5//5 1//5 8//5
f 18//7 17//7 20//7
usemtl Material.001
f 16//3 14//3 18//3
f 14//8 13//8 17//8
f 16//9 20//9 19//9
f 15//5 19//5 17//5
f 20//3 16//3 18//3
f 18//10 14//10 17//10
f 15//11 16//11 19//11
f 13//5 15//5 17//5
usemtl Material.002
f 12//12 16//12 15//12
f 11//5 15//5 13//5
f 12//3 10//3 14//3
f 10//13 9//13 13//13
f 11//14 12//14 15//14
f 9//5 11//5 13//5
f 16//3 12//3 14//3
f 14//15 10//15 13//15
usemtl Material.003
f 8//16 7//16 12//16
f 8//5 11//5 9//5
f 7//3 6//3 10//3
f 5//17 9//17 10//17
f 11//16 8//16 12//16
f 5//5 8//5 9//5
f 12//3 7//3 10//3
f 6//17 5//17 10//17
