# Blender v2.76 (sub 0) OBJ File: '3DAnimation.blend'
# www.blender.org
mtllib Animation_000065.mtl
o Cube
v 0.669659 0.332683 -0.665708
v 0.669659 0.332683 0.665708
v -0.659020 0.247363 0.665708
v -0.659020 0.247363 -0.665708
v 0.564620 1.707213 -0.665707
v 0.564639 1.707169 0.665708
v -0.718858 1.533126 0.665708
v -0.718882 1.533167 -0.665708
v -0.524243 2.945076 -0.665707
v -0.524175 2.945064 0.665708
v -1.305716 1.996875 -0.665708
v -1.305675 1.996855 0.665708
v -2.389955 2.697333 -0.665708
v -2.390489 2.696912 0.665708
v -1.966850 1.525327 -0.665708
v -1.967265 1.525118 0.665707
v -3.463972 1.468791 -0.665708
v -3.461924 1.457139 0.665707
v -2.427660 0.675565 -0.665708
v -2.438735 0.679721 0.665707
vn 0.064100 -0.997900 -0.000000
vn 0.997100 0.076200 -0.000000
vn -0.000000 -0.000000 1.000000
vn -0.998900 -0.046500 0.000000
vn 0.000000 0.000000 -1.000000
vn -0.607800 -0.794100 -0.002600
vn -0.605000 -0.796200 -0.006000
vn -0.752900 0.658200 -0.000100
vn 0.873300 -0.487000 0.008800
vn -0.756600 0.653900 0.006900
vn 0.879100 -0.476700 0.000200
vn 0.580600 -0.814200 0.000100
vn -0.131600 0.991300 0.000000
vn 0.580700 -0.814100 -0.000000
vn -0.131800 0.991300 0.000300
vn -0.620000 -0.784600 -0.000000
vn 0.750900 0.660500 -0.000000
vn 0.750900 0.660400 0.000000
usemtl Material
s off
f 1//1 2//1 3//1
f 1//2 5//2 6//2
f 2//3 6//3 7//3
f 7//4 8//4 4//4
f 1//5 4//5 8//5
f 17//6 19//6 20//6
f 4//1 1//1 3//1
f 2//2 1//2 6//2
f 3//3 2//3 7//3
f 3//4 7//4 4//4
f 5//5 1//5 8//5
f 18//7 17//7 20//7
usemtl Material.001
f 16//3 14//3 18//3
f 14//8 13//8 17//8
f 16//9 20//9 19//9
f 15//5 19//5 17//5
f 20//3 16//3 18//3
f 18//10 14//10 17//10
f 15//11 16//11 19//11
f 13//5 15//5 17//5
usemtl Material.002
f 12//12 16//12 15//12
f 11//5 15//5 13//5
f 12//3 10//3 14//3
f 10//13 9//13 13//13
f 11//14 12//14 15//14
f 9//5 11//5 13//5
f 16//3 12//3 14//3
f 14//15 10//15 13//15
usemtl Material.003
f 8//16 7//16 12//16
f 8//5 11//5 9//5
f 7//3 6//3 10//3
f 5//17 9//17 10//17
f 11//16 8//16 12//16
f 5//5 8//5 9//5
f 12//3 7//3 10//3
f 6//18 5//18 10//18
