# Blender v2.76 (sub 0) OBJ File: '3DAnimation.blend'
# www.blender.org
mtllib Animation_000029.mtl
o Cube
v 0.666177 0.293705 -0.665708
v 0.666177 0.293705 0.665708
v -0.665217 0.286003 0.665708
v -0.665216 0.286003 -0.665708
v 0.642335 1.586565 -0.665707
v 0.642350 1.586602 0.665708
v -0.661897 1.657693 0.665708
v -0.661907 1.657654 -0.665708
v 1.148157 2.235859 -0.665707
v 1.148186 2.235888 0.665708
v 0.163762 3.021973 -0.665708
v 0.163814 3.021997 0.665707
v 1.994515 2.117324 -0.665708
v 1.994101 2.117333 0.665708
v 1.932005 3.387187 -0.665708
v 1.931456 3.387328 0.665707
v 2.842159 1.598913 -0.665708
v 2.835247 1.591678 0.665708
v 3.388040 2.775389 -0.665709
v 3.385321 2.785020 0.665706
vn 0.005800 -1.000000 0.000000
vn 0.999800 0.018400 -0.000000
vn -0.000000 0.000000 1.000000
vn -1.000000 0.002400 0.000000
vn 0.000000 0.000000 -1.000000
vn 0.907100 -0.420900 0.004900
vn 0.908200 -0.418600 0.002400
vn -0.521700 -0.853100 -0.007300
vn 0.382700 0.923900 0.000100
vn -0.530000 -0.848000 -0.000200
vn 0.387400 0.921900 -0.005900
vn -0.202400 0.979300 -0.000000
vn -0.138700 -0.990300 -0.000000
vn -0.202300 0.979300 -0.000200
vn -0.138800 -0.990300 0.000000
vn -0.855500 0.517800 0.000000
vn 0.788900 -0.614600 0.000000
usemtl Material
s off
f 2//1 3//1 4//1
f 5//2 6//2 2//2
f 6//3 7//3 3//3
f 3//4 7//4 8//4
f 5//5 1//5 4//5
f 17//6 19//6 20//6
f 1//1 2//1 4//1
f 1//2 5//2 2//2
f 2//3 6//3 3//3
f 4//4 3//4 8//4
f 8//5 5//5 4//5
f 18//7 17//7 20//7
usemtl Material.001
f 14//3 18//3 20//3
f 13//8 17//8 18//8
f 15//9 16//9 20//9
f 13//5 15//5 19//5
f 16//3 14//3 20//3
f 14//10 13//10 18//10
f 19//11 15//11 20//11
f 17//5 13//5 19//5
usemtl Material.002
f 11//12 12//12 16//12
f 9//5 11//5 15//5
f 10//3 14//3 16//3
f 9//13 13//13 14//13
f 15//14 11//14 16//14
f 13//5 9//5 15//5
f 12//3 10//3 16//3
f 10//15 9//15 14//15
usemtl Material.003
f 7//16 12//16 11//16
f 5//5 8//5 11//5
f 6//3 10//3 12//3
f 6//17 5//17 9//17
f 8//16 7//16 11//16
f 9//5 5//5 11//5
f 7//3 6//3 12//3
f 10//17 6//17 9//17
